M48
INCH,TZ
T1C0.0394
%
G90
G05
T1
X43000Y-32000
X43000Y-33000
X43000Y-34000
X43000Y-35000
X43000Y-36000
X43000Y-39000
X43000Y-40000
X43000Y-41000
X43000Y-42000
X43000Y-43000
X44000Y-32000
X44000Y-33000
X44000Y-34000
X44000Y-35000
X44000Y-36000
X44000Y-39000
X44000Y-40000
X44000Y-41000
X44000Y-42000
X44000Y-43000
X40000Y-32000
X40000Y-33000
X40000Y-34000
X40000Y-35000
X40000Y-36000
X40000Y-39000
X40000Y-40000
X40000Y-41000
X40000Y-42000
X40000Y-43000
X46000Y-32000
X46000Y-33000
X46000Y-34000
X46000Y-35000
X46000Y-36000
X46000Y-39000
X46000Y-40000
X46000Y-41000
X46000Y-42000
X46000Y-43000
X55000Y-32000
X55000Y-33000
X55000Y-34000
X55000Y-35000
X55000Y-36000
X55000Y-39000
X55000Y-40000
X55000Y-41000
X55000Y-42000
X55000Y-43000
X48000Y-32000
X48000Y-33000
X48000Y-34000
X48000Y-35000
X48000Y-36000
X48000Y-39000
X48000Y-40000
X48000Y-41000
X48000Y-42000
X48000Y-43000
X45000Y-32000
X45000Y-33000
X45000Y-34000
X45000Y-35000
X45000Y-36000
X45000Y-39000
X45000Y-40000
X45000Y-41000
X45000Y-42000
X45000Y-43000
X58500Y-28000
X58500Y-29000
X59500Y-28000
X59500Y-29000
X60500Y-28000
X60500Y-29000
X61500Y-28000
X61500Y-29000
X62500Y-28000
X62500Y-29000
X42000Y-32000
X42000Y-33000
X42000Y-34000
X42000Y-35000
X42000Y-36000
X42000Y-39000
X42000Y-40000
X42000Y-41000
X42000Y-42000
X42000Y-43000
X57000Y-32000
X57000Y-33000
X57000Y-34000
X57000Y-35000
X57000Y-36000
X57000Y-39000
X57000Y-40000
X57000Y-41000
X57000Y-42000
X57000Y-43000
X52000Y-32000
X52000Y-33000
X52000Y-34000
X52000Y-35000
X52000Y-36000
X52000Y-39000
X52000Y-40000
X52000Y-41000
X52000Y-42000
X52000Y-43000
X52500Y-28000
X52500Y-29000
X53500Y-28000
X53500Y-29000
X54500Y-28000
X54500Y-29000
X55500Y-28000
X55500Y-29000
X56500Y-28000
X56500Y-29000
X35000Y-32000
X35000Y-33000
X35000Y-34000
X35000Y-35000
X35000Y-36000
X35000Y-39000
X35000Y-40000
X35000Y-41000
X35000Y-42000
X35000Y-43000
X34000Y-32000
X34000Y-33000
X34000Y-34000
X34000Y-35000
X34000Y-36000
X34000Y-39000
X34000Y-40000
X34000Y-41000
X34000Y-42000
X34000Y-43000
X38000Y-32000
X38000Y-33000
X38000Y-34000
X38000Y-35000
X38000Y-36000
X38000Y-39000
X38000Y-40000
X38000Y-41000
X38000Y-42000
X38000Y-43000
X60000Y-32000
X60000Y-33000
X60000Y-34000
X60000Y-35000
X60000Y-36000
X60000Y-39000
X60000Y-40000
X60000Y-41000
X60000Y-42000
X60000Y-43000
X53000Y-32000
X53000Y-33000
X53000Y-34000
X53000Y-35000
X53000Y-36000
X53000Y-39000
X53000Y-40000
X53000Y-41000
X53000Y-42000
X53000Y-43000
X51000Y-32000
X51000Y-33000
X51000Y-34000
X51000Y-35000
X51000Y-36000
X51000Y-39000
X51000Y-40000
X51000Y-41000
X51000Y-42000
X51000Y-43000
X47000Y-32000
X47000Y-33000
X47000Y-34000
X47000Y-35000
X47000Y-36000
X47000Y-39000
X47000Y-40000
X47000Y-41000
X47000Y-42000
X47000Y-43000
X58500Y-46000
X58500Y-47000
X59500Y-46000
X59500Y-47000
X60500Y-46000
X60500Y-47000
X61500Y-46000
X61500Y-47000
X62500Y-46000
X62500Y-47000
X36000Y-32000
X36000Y-33000
X36000Y-34000
X36000Y-35000
X36000Y-36000
X36000Y-39000
X36000Y-40000
X36000Y-41000
X36000Y-42000
X36000Y-43000
X63000Y-32000
X63000Y-33000
X63000Y-34000
X63000Y-35000
X63000Y-36000
X63000Y-39000
X63000Y-40000
X63000Y-41000
X63000Y-42000
X63000Y-43000
X34500Y-46000
X34500Y-47000
X35500Y-46000
X35500Y-47000
X36500Y-46000
X36500Y-47000
X37500Y-46000
X37500Y-47000
X38500Y-46000
X38500Y-47000
X39000Y-32000
X39000Y-33000
X39000Y-34000
X39000Y-35000
X39000Y-36000
X39000Y-39000
X39000Y-40000
X39000Y-41000
X39000Y-42000
X39000Y-43000
X58000Y-32000
X58000Y-33000
X58000Y-34000
X58000Y-35000
X58000Y-36000
X58000Y-39000
X58000Y-40000
X58000Y-41000
X58000Y-42000
X58000Y-43000
X46500Y-28000
X46500Y-29000
X47500Y-28000
X47500Y-29000
X48500Y-28000
X48500Y-29000
X49500Y-28000
X49500Y-29000
X50500Y-28000
X50500Y-29000
X56000Y-32000
X56000Y-33000
X56000Y-34000
X56000Y-35000
X56000Y-36000
X56000Y-39000
X56000Y-40000
X56000Y-41000
X56000Y-42000
X56000Y-43000
X41000Y-32000
X41000Y-33000
X41000Y-34000
X41000Y-35000
X41000Y-36000
X41000Y-39000
X41000Y-40000
X41000Y-41000
X41000Y-42000
X41000Y-43000
X46500Y-46000
X46500Y-47000
X47500Y-46000
X47500Y-47000
X48500Y-46000
X48500Y-47000
X49500Y-46000
X49500Y-47000
X50500Y-46000
X50500Y-47000
X59000Y-32000
X59000Y-33000
X59000Y-34000
X59000Y-35000
X59000Y-36000
X59000Y-39000
X59000Y-40000
X59000Y-41000
X59000Y-42000
X59000Y-43000
X49000Y-32000
X49000Y-33000
X49000Y-34000
X49000Y-35000
X49000Y-36000
X49000Y-39000
X49000Y-40000
X49000Y-41000
X49000Y-42000
X49000Y-43000
X52500Y-46000
X52500Y-47000
X53500Y-46000
X53500Y-47000
X54500Y-46000
X54500Y-47000
X55500Y-46000
X55500Y-47000
X56500Y-46000
X56500Y-47000
X34500Y-28000
X34500Y-29000
X35500Y-28000
X35500Y-29000
X36500Y-28000
X36500Y-29000
X37500Y-28000
X37500Y-29000
X38500Y-28000
X38500Y-29000
X62000Y-32000
X62000Y-33000
X62000Y-34000
X62000Y-35000
X62000Y-36000
X62000Y-39000
X62000Y-40000
X62000Y-41000
X62000Y-42000
X62000Y-43000
X61000Y-32000
X61000Y-33000
X61000Y-34000
X61000Y-35000
X61000Y-36000
X61000Y-39000
X61000Y-40000
X61000Y-41000
X61000Y-42000
X61000Y-43000
X54000Y-32000
X54000Y-33000
X54000Y-34000
X54000Y-35000
X54000Y-36000
X54000Y-39000
X54000Y-40000
X54000Y-41000
X54000Y-42000
X54000Y-43000
X40500Y-46000
X40500Y-47000
X41500Y-46000
X41500Y-47000
X42500Y-46000
X42500Y-47000
X43500Y-46000
X43500Y-47000
X44500Y-46000
X44500Y-47000
X37000Y-32000
X37000Y-33000
X37000Y-34000
X37000Y-35000
X37000Y-36000
X37000Y-39000
X37000Y-40000
X37000Y-41000
X37000Y-42000
X37000Y-43000
X40500Y-28000
X40500Y-29000
X41500Y-28000
X41500Y-29000
X42500Y-28000
X42500Y-29000
X43500Y-28000
X43500Y-29000
X44500Y-28000
X44500Y-29000
X50000Y-32000
X50000Y-33000
X50000Y-34000
X50000Y-35000
X50000Y-36000
X50000Y-39000
X50000Y-40000
X50000Y-41000
X50000Y-42000
X50000Y-43000
T0
M30
