G04 #@! TF.GenerationSoftware,KiCad,Pcbnew,(5.1.8)-1*
G04 #@! TF.CreationDate,2021-02-07T23:28:03+01:00*
G04 #@! TF.ProjectId,Breadboard 400,42726561-6462-46f6-9172-64203430302e,rev?*
G04 #@! TF.SameCoordinates,Original*
G04 #@! TF.FileFunction,Copper,L2,Bot*
G04 #@! TF.FilePolarity,Positive*
%FSLAX46Y46*%
G04 Gerber Fmt 4.6, Leading zero omitted, Abs format (unit mm)*
G04 Created by KiCad (PCBNEW (5.1.8)-1) date 2021-02-07 23:28:03*
%MOMM*%
%LPD*%
G01*
G04 APERTURE LIST*
G04 #@! TA.AperFunction,ComponentPad*
%ADD10O,1.700000X1.700000*%
G04 #@! TD*
G04 #@! TA.AperFunction,WasherPad*
%ADD11C,3.500000*%
G04 #@! TD*
G04 #@! TA.AperFunction,SMDPad,CuDef*
%ADD12R,2.000000X1.500000*%
G04 #@! TD*
G04 #@! TA.AperFunction,Conductor*
%ADD13C,0.381000*%
G04 #@! TD*
G04 APERTURE END LIST*
D10*
X158750000Y-73660000D03*
X156210000Y-73660000D03*
X153670000Y-73660000D03*
X151130000Y-73660000D03*
X148590000Y-73660000D03*
X148590000Y-71120000D03*
X151130000Y-71120000D03*
X153670000Y-71120000D03*
X156210000Y-71120000D03*
X158750000Y-71120000D03*
X119380000Y-81280000D03*
X119380000Y-83820000D03*
X119380000Y-86360000D03*
X119380000Y-88900000D03*
X119380000Y-91440000D03*
X119380000Y-99060000D03*
X119380000Y-101600000D03*
X119380000Y-104140000D03*
X119380000Y-106680000D03*
X119380000Y-109220000D03*
X86360000Y-109220000D03*
X86360000Y-106680000D03*
X86360000Y-104140000D03*
X86360000Y-101600000D03*
X86360000Y-99060000D03*
X86360000Y-91440000D03*
X86360000Y-88900000D03*
X86360000Y-86360000D03*
X86360000Y-83820000D03*
X86360000Y-81280000D03*
X109220000Y-109220000D03*
X109220000Y-106680000D03*
X109220000Y-104140000D03*
X109220000Y-101600000D03*
X109220000Y-99060000D03*
X109220000Y-91440000D03*
X109220000Y-88900000D03*
X109220000Y-86360000D03*
X109220000Y-83820000D03*
X109220000Y-81280000D03*
X111760000Y-81280000D03*
X111760000Y-83820000D03*
X111760000Y-86360000D03*
X111760000Y-88900000D03*
X111760000Y-91440000D03*
X111760000Y-99060000D03*
X111760000Y-101600000D03*
X111760000Y-104140000D03*
X111760000Y-106680000D03*
X111760000Y-109220000D03*
X113030000Y-116840000D03*
X110490000Y-116840000D03*
X107950000Y-116840000D03*
X105410000Y-116840000D03*
X102870000Y-116840000D03*
X102870000Y-119380000D03*
X105410000Y-119380000D03*
X107950000Y-119380000D03*
X110490000Y-119380000D03*
X113030000Y-119380000D03*
X88900000Y-81280000D03*
X88900000Y-83820000D03*
X88900000Y-86360000D03*
X88900000Y-88900000D03*
X88900000Y-91440000D03*
X88900000Y-99060000D03*
X88900000Y-101600000D03*
X88900000Y-104140000D03*
X88900000Y-106680000D03*
X88900000Y-109220000D03*
X143510000Y-119380000D03*
X140970000Y-119380000D03*
X138430000Y-119380000D03*
X135890000Y-119380000D03*
X133350000Y-119380000D03*
X133350000Y-116840000D03*
X135890000Y-116840000D03*
X138430000Y-116840000D03*
X140970000Y-116840000D03*
X143510000Y-116840000D03*
X116840000Y-109220000D03*
X116840000Y-106680000D03*
X116840000Y-104140000D03*
X116840000Y-101600000D03*
X116840000Y-99060000D03*
X116840000Y-91440000D03*
X116840000Y-88900000D03*
X116840000Y-86360000D03*
X116840000Y-83820000D03*
X116840000Y-81280000D03*
X128270000Y-116840000D03*
X125730000Y-116840000D03*
X123190000Y-116840000D03*
X120650000Y-116840000D03*
X118110000Y-116840000D03*
X118110000Y-119380000D03*
X120650000Y-119380000D03*
X123190000Y-119380000D03*
X125730000Y-119380000D03*
X128270000Y-119380000D03*
X91440000Y-109220000D03*
X91440000Y-106680000D03*
X91440000Y-104140000D03*
X91440000Y-101600000D03*
X91440000Y-99060000D03*
X91440000Y-91440000D03*
X91440000Y-88900000D03*
X91440000Y-86360000D03*
X91440000Y-83820000D03*
X91440000Y-81280000D03*
X96520000Y-109220000D03*
X96520000Y-106680000D03*
X96520000Y-104140000D03*
X96520000Y-101600000D03*
X96520000Y-99060000D03*
X96520000Y-91440000D03*
X96520000Y-88900000D03*
X96520000Y-86360000D03*
X96520000Y-83820000D03*
X96520000Y-81280000D03*
D11*
X90170000Y-95250000D03*
X156210000Y-95250000D03*
D10*
X106680000Y-109220000D03*
X106680000Y-106680000D03*
X106680000Y-104140000D03*
X106680000Y-101600000D03*
X106680000Y-99060000D03*
X106680000Y-91440000D03*
X106680000Y-88900000D03*
X106680000Y-86360000D03*
X106680000Y-83820000D03*
X106680000Y-81280000D03*
X99060000Y-81280000D03*
X99060000Y-83820000D03*
X99060000Y-86360000D03*
X99060000Y-88900000D03*
X99060000Y-91440000D03*
X99060000Y-99060000D03*
X99060000Y-101600000D03*
X99060000Y-104140000D03*
X99060000Y-106680000D03*
X99060000Y-109220000D03*
X104140000Y-81280000D03*
X104140000Y-83820000D03*
X104140000Y-86360000D03*
X104140000Y-88900000D03*
X104140000Y-91440000D03*
X104140000Y-99060000D03*
X104140000Y-101600000D03*
X104140000Y-104140000D03*
X104140000Y-106680000D03*
X104140000Y-109220000D03*
X101600000Y-109220000D03*
X101600000Y-106680000D03*
X101600000Y-104140000D03*
X101600000Y-101600000D03*
X101600000Y-99060000D03*
X101600000Y-91440000D03*
X101600000Y-88900000D03*
X101600000Y-86360000D03*
X101600000Y-83820000D03*
X101600000Y-81280000D03*
X93980000Y-81280000D03*
X93980000Y-83820000D03*
X93980000Y-86360000D03*
X93980000Y-88900000D03*
X93980000Y-91440000D03*
X93980000Y-99060000D03*
X93980000Y-101600000D03*
X93980000Y-104140000D03*
X93980000Y-106680000D03*
X93980000Y-109220000D03*
D12*
X84074000Y-96266000D03*
X84074000Y-94361000D03*
X162306000Y-96266000D03*
X162306000Y-94361000D03*
D10*
X97790000Y-73660000D03*
X95250000Y-73660000D03*
X92710000Y-73660000D03*
X90170000Y-73660000D03*
X87630000Y-73660000D03*
X87630000Y-71120000D03*
X90170000Y-71120000D03*
X92710000Y-71120000D03*
X95250000Y-71120000D03*
X97790000Y-71120000D03*
X158750000Y-116840000D03*
X156210000Y-116840000D03*
X153670000Y-116840000D03*
X151130000Y-116840000D03*
X148590000Y-116840000D03*
X148590000Y-119380000D03*
X151130000Y-119380000D03*
X153670000Y-119380000D03*
X156210000Y-119380000D03*
X158750000Y-119380000D03*
X97790000Y-119380000D03*
X95250000Y-119380000D03*
X92710000Y-119380000D03*
X90170000Y-119380000D03*
X87630000Y-119380000D03*
X87630000Y-116840000D03*
X90170000Y-116840000D03*
X92710000Y-116840000D03*
X95250000Y-116840000D03*
X97790000Y-116840000D03*
X128270000Y-71120000D03*
X125730000Y-71120000D03*
X123190000Y-71120000D03*
X120650000Y-71120000D03*
X118110000Y-71120000D03*
X118110000Y-73660000D03*
X120650000Y-73660000D03*
X123190000Y-73660000D03*
X125730000Y-73660000D03*
X128270000Y-73660000D03*
X113030000Y-73660000D03*
X110490000Y-73660000D03*
X107950000Y-73660000D03*
X105410000Y-73660000D03*
X102870000Y-73660000D03*
X102870000Y-71120000D03*
X105410000Y-71120000D03*
X107950000Y-71120000D03*
X110490000Y-71120000D03*
X113030000Y-71120000D03*
X143510000Y-71120000D03*
X140970000Y-71120000D03*
X138430000Y-71120000D03*
X135890000Y-71120000D03*
X133350000Y-71120000D03*
X133350000Y-73660000D03*
X135890000Y-73660000D03*
X138430000Y-73660000D03*
X140970000Y-73660000D03*
X143510000Y-73660000D03*
X149860000Y-81280000D03*
X149860000Y-83820000D03*
X149860000Y-86360000D03*
X149860000Y-88900000D03*
X149860000Y-91440000D03*
X149860000Y-99060000D03*
X149860000Y-101600000D03*
X149860000Y-104140000D03*
X149860000Y-106680000D03*
X149860000Y-109220000D03*
X147320000Y-109220000D03*
X147320000Y-106680000D03*
X147320000Y-104140000D03*
X147320000Y-101600000D03*
X147320000Y-99060000D03*
X147320000Y-91440000D03*
X147320000Y-88900000D03*
X147320000Y-86360000D03*
X147320000Y-83820000D03*
X147320000Y-81280000D03*
X144780000Y-81280000D03*
X144780000Y-83820000D03*
X144780000Y-86360000D03*
X144780000Y-88900000D03*
X144780000Y-91440000D03*
X144780000Y-99060000D03*
X144780000Y-101600000D03*
X144780000Y-104140000D03*
X144780000Y-106680000D03*
X144780000Y-109220000D03*
X142240000Y-109220000D03*
X142240000Y-106680000D03*
X142240000Y-104140000D03*
X142240000Y-101600000D03*
X142240000Y-99060000D03*
X142240000Y-91440000D03*
X142240000Y-88900000D03*
X142240000Y-86360000D03*
X142240000Y-83820000D03*
X142240000Y-81280000D03*
X139700000Y-109220000D03*
X139700000Y-106680000D03*
X139700000Y-104140000D03*
X139700000Y-101600000D03*
X139700000Y-99060000D03*
X139700000Y-91440000D03*
X139700000Y-88900000D03*
X139700000Y-86360000D03*
X139700000Y-83820000D03*
X139700000Y-81280000D03*
X137160000Y-81280000D03*
X137160000Y-83820000D03*
X137160000Y-86360000D03*
X137160000Y-88900000D03*
X137160000Y-91440000D03*
X137160000Y-99060000D03*
X137160000Y-101600000D03*
X137160000Y-104140000D03*
X137160000Y-106680000D03*
X137160000Y-109220000D03*
X134620000Y-109220000D03*
X134620000Y-106680000D03*
X134620000Y-104140000D03*
X134620000Y-101600000D03*
X134620000Y-99060000D03*
X134620000Y-91440000D03*
X134620000Y-88900000D03*
X134620000Y-86360000D03*
X134620000Y-83820000D03*
X134620000Y-81280000D03*
X132080000Y-81280000D03*
X132080000Y-83820000D03*
X132080000Y-86360000D03*
X132080000Y-88900000D03*
X132080000Y-91440000D03*
X132080000Y-99060000D03*
X132080000Y-101600000D03*
X132080000Y-104140000D03*
X132080000Y-106680000D03*
X132080000Y-109220000D03*
X129540000Y-109220000D03*
X129540000Y-106680000D03*
X129540000Y-104140000D03*
X129540000Y-101600000D03*
X129540000Y-99060000D03*
X129540000Y-91440000D03*
X129540000Y-88900000D03*
X129540000Y-86360000D03*
X129540000Y-83820000D03*
X129540000Y-81280000D03*
X127000000Y-81280000D03*
X127000000Y-83820000D03*
X127000000Y-86360000D03*
X127000000Y-88900000D03*
X127000000Y-91440000D03*
X127000000Y-99060000D03*
X127000000Y-101600000D03*
X127000000Y-104140000D03*
X127000000Y-106680000D03*
X127000000Y-109220000D03*
X124460000Y-109220000D03*
X124460000Y-106680000D03*
X124460000Y-104140000D03*
X124460000Y-101600000D03*
X124460000Y-99060000D03*
X124460000Y-91440000D03*
X124460000Y-88900000D03*
X124460000Y-86360000D03*
X124460000Y-83820000D03*
X124460000Y-81280000D03*
X121920000Y-81280000D03*
X121920000Y-83820000D03*
X121920000Y-86360000D03*
X121920000Y-88900000D03*
X121920000Y-91440000D03*
X121920000Y-99060000D03*
X121920000Y-101600000D03*
X121920000Y-104140000D03*
X121920000Y-106680000D03*
X121920000Y-109220000D03*
X114300000Y-109220000D03*
X114300000Y-106680000D03*
X114300000Y-104140000D03*
X114300000Y-101600000D03*
X114300000Y-99060000D03*
X114300000Y-91440000D03*
X114300000Y-88900000D03*
X114300000Y-86360000D03*
X114300000Y-83820000D03*
X114300000Y-81280000D03*
X152400000Y-109220000D03*
X152400000Y-106680000D03*
X152400000Y-104140000D03*
X152400000Y-101600000D03*
X152400000Y-99060000D03*
X152400000Y-91440000D03*
X152400000Y-88900000D03*
X152400000Y-86360000D03*
X152400000Y-83820000D03*
X152400000Y-81280000D03*
X154940000Y-81280000D03*
X154940000Y-83820000D03*
X154940000Y-86360000D03*
X154940000Y-88900000D03*
X154940000Y-91440000D03*
X154940000Y-99060000D03*
X154940000Y-101600000D03*
X154940000Y-104140000D03*
X154940000Y-106680000D03*
X154940000Y-109220000D03*
X157480000Y-109220000D03*
X157480000Y-106680000D03*
X157480000Y-104140000D03*
X157480000Y-101600000D03*
X157480000Y-99060000D03*
X157480000Y-91440000D03*
X157480000Y-88900000D03*
X157480000Y-86360000D03*
X157480000Y-83820000D03*
X157480000Y-81280000D03*
X160020000Y-81280000D03*
X160020000Y-83820000D03*
X160020000Y-86360000D03*
X160020000Y-88900000D03*
X160020000Y-91440000D03*
X160020000Y-99060000D03*
X160020000Y-101600000D03*
X160020000Y-104140000D03*
X160020000Y-106680000D03*
X160020000Y-109220000D03*
D13*
X143510000Y-71120000D02*
X148590000Y-71120000D01*
X153670000Y-71120000D02*
X156210000Y-71120000D01*
X148590000Y-71120000D02*
X151130000Y-71120000D01*
X156210000Y-71120000D02*
X158750000Y-71120000D01*
X151130000Y-71120000D02*
X153670000Y-71120000D01*
X128270000Y-71120000D02*
X133350000Y-71120000D01*
X138430000Y-71120000D02*
X140970000Y-71120000D01*
X133350000Y-71120000D02*
X135890000Y-71120000D01*
X140970000Y-71120000D02*
X143510000Y-71120000D01*
X135890000Y-71120000D02*
X138430000Y-71120000D01*
X113030000Y-71120000D02*
X118110000Y-71120000D01*
X123190000Y-71120000D02*
X125730000Y-71120000D01*
X118110000Y-71120000D02*
X120650000Y-71120000D01*
X125730000Y-71120000D02*
X128270000Y-71120000D01*
X120650000Y-71120000D02*
X123190000Y-71120000D01*
X92710000Y-71120000D02*
X95250000Y-71120000D01*
X87630000Y-71120000D02*
X90170000Y-71120000D01*
X95250000Y-71120000D02*
X97790000Y-71120000D01*
X90170000Y-71120000D02*
X92710000Y-71120000D01*
X97790000Y-71120000D02*
X102870000Y-71120000D01*
X102870000Y-71120000D02*
X105410000Y-71120000D01*
X105410000Y-71120000D02*
X107950000Y-71120000D01*
X107950000Y-71120000D02*
X110490000Y-71120000D01*
X110490000Y-71120000D02*
X113030000Y-71120000D01*
X162052000Y-71120000D02*
X158750000Y-71120000D01*
X162814000Y-71882000D02*
X162052000Y-71120000D01*
X162814000Y-93853000D02*
X162814000Y-71882000D01*
X162306000Y-94361000D02*
X162814000Y-93853000D01*
X156210000Y-73660000D02*
X153670000Y-73660000D01*
X151130000Y-73660000D02*
X148590000Y-73660000D01*
X158750000Y-73660000D02*
X156210000Y-73660000D01*
X148590000Y-73660000D02*
X143510000Y-73660000D01*
X153670000Y-73660000D02*
X151130000Y-73660000D01*
X140970000Y-73660000D02*
X138430000Y-73660000D01*
X135890000Y-73660000D02*
X133350000Y-73660000D01*
X143510000Y-73660000D02*
X140970000Y-73660000D01*
X133350000Y-73660000D02*
X128270000Y-73660000D01*
X138430000Y-73660000D02*
X135890000Y-73660000D01*
X125730000Y-73660000D02*
X123190000Y-73660000D01*
X120650000Y-73660000D02*
X118110000Y-73660000D01*
X128270000Y-73660000D02*
X125730000Y-73660000D01*
X118110000Y-73660000D02*
X113030000Y-73660000D01*
X123190000Y-73660000D02*
X120650000Y-73660000D01*
X95250000Y-73660000D02*
X92710000Y-73660000D01*
X90170000Y-73660000D02*
X87630000Y-73660000D01*
X97790000Y-73660000D02*
X95250000Y-73660000D01*
X92710000Y-73660000D02*
X90170000Y-73660000D01*
X113030000Y-73660000D02*
X110490000Y-73660000D01*
X110490000Y-73660000D02*
X107950000Y-73660000D01*
X107950000Y-73660000D02*
X105410000Y-73660000D01*
X105410000Y-73660000D02*
X102870000Y-73660000D01*
X102870000Y-73660000D02*
X97790000Y-73660000D01*
X84328000Y-73660000D02*
X87630000Y-73660000D01*
X83566000Y-74422000D02*
X84328000Y-73660000D01*
X83566000Y-93853000D02*
X83566000Y-74422000D01*
X84074000Y-94361000D02*
X83566000Y-93853000D01*
X92710000Y-116840000D02*
X95250000Y-116840000D01*
X87630000Y-116840000D02*
X90170000Y-116840000D01*
X95250000Y-116840000D02*
X97790000Y-116840000D01*
X90170000Y-116840000D02*
X92710000Y-116840000D01*
X97790000Y-116840000D02*
X102870000Y-116840000D01*
X107950000Y-116840000D02*
X110490000Y-116840000D01*
X102870000Y-116840000D02*
X105410000Y-116840000D01*
X110490000Y-116840000D02*
X113030000Y-116840000D01*
X105410000Y-116840000D02*
X107950000Y-116840000D01*
X113030000Y-116840000D02*
X118110000Y-116840000D01*
X123190000Y-116840000D02*
X125730000Y-116840000D01*
X118110000Y-116840000D02*
X120650000Y-116840000D01*
X125730000Y-116840000D02*
X128270000Y-116840000D01*
X120650000Y-116840000D02*
X123190000Y-116840000D01*
X128270000Y-116840000D02*
X133350000Y-116840000D01*
X138430000Y-116840000D02*
X140970000Y-116840000D01*
X133350000Y-116840000D02*
X135890000Y-116840000D01*
X140970000Y-116840000D02*
X143510000Y-116840000D01*
X135890000Y-116840000D02*
X138430000Y-116840000D01*
X143510000Y-116840000D02*
X148590000Y-116840000D01*
X153670000Y-116840000D02*
X156210000Y-116840000D01*
X148590000Y-116840000D02*
X151130000Y-116840000D01*
X156210000Y-116840000D02*
X158750000Y-116840000D01*
X151130000Y-116840000D02*
X153670000Y-116840000D01*
X162052000Y-116840000D02*
X158750000Y-116840000D01*
X162814000Y-116078000D02*
X162052000Y-116840000D01*
X162814000Y-96774000D02*
X162814000Y-116078000D01*
X162306000Y-96266000D02*
X162814000Y-96774000D01*
X95250000Y-119380000D02*
X92710000Y-119380000D01*
X90170000Y-119380000D02*
X87630000Y-119380000D01*
X97790000Y-119380000D02*
X95250000Y-119380000D01*
X92710000Y-119380000D02*
X90170000Y-119380000D01*
X110490000Y-119380000D02*
X107950000Y-119380000D01*
X105410000Y-119380000D02*
X102870000Y-119380000D01*
X113030000Y-119380000D02*
X110490000Y-119380000D01*
X102870000Y-119380000D02*
X97790000Y-119380000D01*
X107950000Y-119380000D02*
X105410000Y-119380000D01*
X125730000Y-119380000D02*
X123190000Y-119380000D01*
X120650000Y-119380000D02*
X118110000Y-119380000D01*
X128270000Y-119380000D02*
X125730000Y-119380000D01*
X118110000Y-119380000D02*
X113030000Y-119380000D01*
X123190000Y-119380000D02*
X120650000Y-119380000D01*
X140970000Y-119380000D02*
X138430000Y-119380000D01*
X135890000Y-119380000D02*
X133350000Y-119380000D01*
X143510000Y-119380000D02*
X140970000Y-119380000D01*
X133350000Y-119380000D02*
X128270000Y-119380000D01*
X138430000Y-119380000D02*
X135890000Y-119380000D01*
X156210000Y-119380000D02*
X153670000Y-119380000D01*
X151130000Y-119380000D02*
X148590000Y-119380000D01*
X158750000Y-119380000D02*
X156210000Y-119380000D01*
X148590000Y-119380000D02*
X143510000Y-119380000D01*
X153670000Y-119380000D02*
X151130000Y-119380000D01*
X84328000Y-119380000D02*
X87630000Y-119380000D01*
X83566000Y-118618000D02*
X84328000Y-119380000D01*
X83566000Y-96774000D02*
X83566000Y-118618000D01*
X84074000Y-96266000D02*
X83566000Y-96774000D01*
X88900000Y-83820000D02*
X88900000Y-86360000D01*
X88900000Y-88900000D02*
X88900000Y-86360000D01*
X88900000Y-81280000D02*
X88900000Y-83820000D01*
X88900000Y-88900000D02*
X88900000Y-91440000D01*
X88900000Y-106680000D02*
X88900000Y-104140000D01*
X88900000Y-101600000D02*
X88900000Y-104140000D01*
X88900000Y-106680000D02*
X88900000Y-109220000D01*
X88900000Y-99060000D02*
X88900000Y-101600000D01*
X116840000Y-99060000D02*
X116840000Y-101600000D01*
X116840000Y-106680000D02*
X116840000Y-104140000D01*
X116840000Y-101600000D02*
X116840000Y-104140000D01*
X116840000Y-106680000D02*
X116840000Y-109220000D01*
X116840000Y-88900000D02*
X116840000Y-86360000D01*
X116840000Y-81280000D02*
X116840000Y-83820000D01*
X116840000Y-88900000D02*
X116840000Y-91440000D01*
X116840000Y-83820000D02*
X116840000Y-86360000D01*
X119380000Y-81280000D02*
X119380000Y-83820000D01*
X119380000Y-88900000D02*
X119380000Y-86360000D01*
X119380000Y-83820000D02*
X119380000Y-86360000D01*
X119380000Y-88900000D02*
X119380000Y-91440000D01*
X119380000Y-99060000D02*
X119380000Y-101600000D01*
X119380000Y-106680000D02*
X119380000Y-104140000D01*
X119380000Y-106680000D02*
X119380000Y-109220000D01*
X119380000Y-101600000D02*
X119380000Y-104140000D01*
X86360000Y-99060000D02*
X86360000Y-101600000D01*
X86360000Y-101600000D02*
X86360000Y-104140000D01*
X86360000Y-106680000D02*
X86360000Y-104140000D01*
X86360000Y-106680000D02*
X86360000Y-109220000D01*
X86360000Y-83820000D02*
X86360000Y-86360000D01*
X86360000Y-88900000D02*
X86360000Y-86360000D01*
X86360000Y-88900000D02*
X86360000Y-91440000D01*
X86360000Y-81280000D02*
X86360000Y-83820000D01*
X111760000Y-88900000D02*
X111760000Y-91440000D01*
X111760000Y-88900000D02*
X111760000Y-86360000D01*
X111760000Y-81280000D02*
X111760000Y-83820000D01*
X111760000Y-83820000D02*
X111760000Y-86360000D01*
X111760000Y-106680000D02*
X111760000Y-104140000D01*
X111760000Y-101600000D02*
X111760000Y-104140000D01*
X111760000Y-106680000D02*
X111760000Y-109220000D01*
X111760000Y-99060000D02*
X111760000Y-101600000D01*
X109220000Y-106680000D02*
X109220000Y-104140000D01*
X109220000Y-101600000D02*
X109220000Y-104140000D01*
X109220000Y-106680000D02*
X109220000Y-109220000D01*
X109220000Y-99060000D02*
X109220000Y-101600000D01*
X109220000Y-88900000D02*
X109220000Y-86360000D01*
X109220000Y-83820000D02*
X109220000Y-86360000D01*
X109220000Y-81280000D02*
X109220000Y-83820000D01*
X109220000Y-88900000D02*
X109220000Y-91440000D01*
X106680000Y-106680000D02*
X106680000Y-104140000D01*
X106680000Y-101600000D02*
X106680000Y-104140000D01*
X106680000Y-106680000D02*
X106680000Y-109220000D01*
X106680000Y-99060000D02*
X106680000Y-101600000D01*
X106680000Y-83820000D02*
X106680000Y-86360000D01*
X106680000Y-88900000D02*
X106680000Y-86360000D01*
X106680000Y-88900000D02*
X106680000Y-91440000D01*
X106680000Y-81280000D02*
X106680000Y-83820000D01*
X104140000Y-91440000D02*
X104140000Y-88900000D01*
X104140000Y-88900000D02*
X104140000Y-86360000D01*
X104140000Y-86360000D02*
X104140000Y-83820000D01*
X104140000Y-83820000D02*
X104140000Y-81280000D01*
X104140000Y-106680000D02*
X104140000Y-104140000D01*
X104140000Y-101600000D02*
X104140000Y-104140000D01*
X104140000Y-106680000D02*
X104140000Y-109220000D01*
X104140000Y-99060000D02*
X104140000Y-101600000D01*
X101600000Y-106680000D02*
X101600000Y-104140000D01*
X101600000Y-101600000D02*
X101600000Y-104140000D01*
X101600000Y-106680000D02*
X101600000Y-109220000D01*
X101600000Y-99060000D02*
X101600000Y-101600000D01*
X101600000Y-81280000D02*
X101600000Y-83820000D01*
X101600000Y-83820000D02*
X101600000Y-86360000D01*
X101600000Y-86360000D02*
X101600000Y-88900000D01*
X101600000Y-88900000D02*
X101600000Y-91440000D01*
X99060000Y-91440000D02*
X99060000Y-88900000D01*
X99060000Y-88900000D02*
X99060000Y-86360000D01*
X99060000Y-86360000D02*
X99060000Y-83820000D01*
X99060000Y-83820000D02*
X99060000Y-81280000D01*
X99060000Y-106680000D02*
X99060000Y-104140000D01*
X99060000Y-101600000D02*
X99060000Y-104140000D01*
X99060000Y-106680000D02*
X99060000Y-109220000D01*
X99060000Y-99060000D02*
X99060000Y-101600000D01*
X96520000Y-106680000D02*
X96520000Y-104140000D01*
X96520000Y-101600000D02*
X96520000Y-104140000D01*
X96520000Y-106680000D02*
X96520000Y-109220000D01*
X96520000Y-99060000D02*
X96520000Y-101600000D01*
X96520000Y-88900000D02*
X96520000Y-86360000D01*
X96520000Y-88900000D02*
X96520000Y-91440000D01*
X96520000Y-81280000D02*
X96520000Y-83820000D01*
X96520000Y-83820000D02*
X96520000Y-86360000D01*
X93980000Y-88900000D02*
X93980000Y-91440000D01*
X93980000Y-81280000D02*
X93980000Y-83820000D01*
X93980000Y-88900000D02*
X93980000Y-86360000D01*
X93980000Y-83820000D02*
X93980000Y-86360000D01*
X93980000Y-106680000D02*
X93980000Y-104140000D01*
X93980000Y-101600000D02*
X93980000Y-104140000D01*
X93980000Y-106680000D02*
X93980000Y-109220000D01*
X93980000Y-99060000D02*
X93980000Y-101600000D01*
X91440000Y-106680000D02*
X91440000Y-104140000D01*
X91440000Y-101600000D02*
X91440000Y-104140000D01*
X91440000Y-106680000D02*
X91440000Y-109220000D01*
X91440000Y-99060000D02*
X91440000Y-101600000D01*
X91440000Y-88900000D02*
X91440000Y-86360000D01*
X91440000Y-88900000D02*
X91440000Y-91440000D01*
X91440000Y-81280000D02*
X91440000Y-83820000D01*
X91440000Y-83820000D02*
X91440000Y-86360000D01*
X149860000Y-88900000D02*
X149860000Y-91440000D01*
X149860000Y-88900000D02*
X149860000Y-86360000D01*
X149860000Y-81280000D02*
X149860000Y-83820000D01*
X149860000Y-83820000D02*
X149860000Y-86360000D01*
X149860000Y-99060000D02*
X149860000Y-101600000D01*
X149860000Y-106680000D02*
X149860000Y-104140000D01*
X149860000Y-101600000D02*
X149860000Y-104140000D01*
X149860000Y-106680000D02*
X149860000Y-109220000D01*
X147320000Y-106680000D02*
X147320000Y-109220000D01*
X147320000Y-99060000D02*
X147320000Y-101600000D01*
X147320000Y-106680000D02*
X147320000Y-104140000D01*
X147320000Y-101600000D02*
X147320000Y-104140000D01*
X147320000Y-88900000D02*
X147320000Y-91440000D01*
X147320000Y-81280000D02*
X147320000Y-83820000D01*
X147320000Y-88900000D02*
X147320000Y-86360000D01*
X147320000Y-83820000D02*
X147320000Y-86360000D01*
X144780000Y-81280000D02*
X144780000Y-83820000D01*
X144780000Y-83820000D02*
X144780000Y-86360000D01*
X144780000Y-88900000D02*
X144780000Y-91440000D01*
X144780000Y-88900000D02*
X144780000Y-86360000D01*
X144780000Y-99060000D02*
X144780000Y-101600000D01*
X144780000Y-106680000D02*
X144780000Y-104140000D01*
X144780000Y-106680000D02*
X144780000Y-109220000D01*
X144780000Y-101600000D02*
X144780000Y-104140000D01*
X142240000Y-99060000D02*
X142240000Y-101600000D01*
X142240000Y-106680000D02*
X142240000Y-104140000D01*
X142240000Y-101600000D02*
X142240000Y-104140000D01*
X142240000Y-106680000D02*
X142240000Y-109220000D01*
X142240000Y-81280000D02*
X142240000Y-83820000D01*
X142240000Y-83820000D02*
X142240000Y-86360000D01*
X142240000Y-88900000D02*
X142240000Y-86360000D01*
X142240000Y-88900000D02*
X142240000Y-91440000D01*
X139700000Y-99060000D02*
X139700000Y-101600000D01*
X139700000Y-101600000D02*
X139700000Y-104140000D01*
X139700000Y-106680000D02*
X139700000Y-104140000D01*
X139700000Y-106680000D02*
X139700000Y-109220000D01*
X139700000Y-81280000D02*
X139700000Y-83820000D01*
X139700000Y-83820000D02*
X139700000Y-86360000D01*
X139700000Y-88900000D02*
X139700000Y-86360000D01*
X139700000Y-88900000D02*
X139700000Y-91440000D01*
X137160000Y-88900000D02*
X137160000Y-91440000D01*
X137160000Y-83820000D02*
X137160000Y-86360000D01*
X137160000Y-81280000D02*
X137160000Y-83820000D01*
X137160000Y-88900000D02*
X137160000Y-86360000D01*
X137160000Y-106680000D02*
X137160000Y-104140000D01*
X137160000Y-101600000D02*
X137160000Y-104140000D01*
X137160000Y-106680000D02*
X137160000Y-109220000D01*
X137160000Y-99060000D02*
X137160000Y-101600000D01*
X134620000Y-106680000D02*
X134620000Y-109220000D01*
X134620000Y-106680000D02*
X134620000Y-104140000D01*
X134620000Y-99060000D02*
X134620000Y-101600000D01*
X134620000Y-101600000D02*
X134620000Y-104140000D01*
X134620000Y-88900000D02*
X134620000Y-91440000D01*
X134620000Y-83820000D02*
X134620000Y-86360000D01*
X134620000Y-88900000D02*
X134620000Y-86360000D01*
X134620000Y-81280000D02*
X134620000Y-83820000D01*
X132080000Y-88900000D02*
X132080000Y-86360000D01*
X132080000Y-83820000D02*
X132080000Y-86360000D01*
X132080000Y-81280000D02*
X132080000Y-83820000D01*
X132080000Y-88900000D02*
X132080000Y-91440000D01*
X132080000Y-101600000D02*
X132080000Y-104140000D01*
X132080000Y-106680000D02*
X132080000Y-104140000D01*
X132080000Y-106680000D02*
X132080000Y-109220000D01*
X132080000Y-99060000D02*
X132080000Y-101600000D01*
X129540000Y-106680000D02*
X129540000Y-109220000D01*
X129540000Y-101600000D02*
X129540000Y-104140000D01*
X129540000Y-106680000D02*
X129540000Y-104140000D01*
X129540000Y-99060000D02*
X129540000Y-101600000D01*
X129540000Y-88900000D02*
X129540000Y-91440000D01*
X129540000Y-88900000D02*
X129540000Y-86360000D01*
X129540000Y-83820000D02*
X129540000Y-86360000D01*
X129540000Y-81280000D02*
X129540000Y-83820000D01*
X127000000Y-88900000D02*
X127000000Y-86360000D01*
X127000000Y-83820000D02*
X127000000Y-86360000D01*
X127000000Y-88900000D02*
X127000000Y-91440000D01*
X127000000Y-81280000D02*
X127000000Y-83820000D01*
X127000000Y-101600000D02*
X127000000Y-104140000D01*
X127000000Y-99060000D02*
X127000000Y-101600000D01*
X127000000Y-106680000D02*
X127000000Y-109220000D01*
X127000000Y-106680000D02*
X127000000Y-104140000D01*
X124460000Y-99060000D02*
X124460000Y-101600000D01*
X124460000Y-106680000D02*
X124460000Y-109220000D01*
X124460000Y-106680000D02*
X124460000Y-104140000D01*
X124460000Y-101600000D02*
X124460000Y-104140000D01*
X124460000Y-83820000D02*
X124460000Y-86360000D01*
X124460000Y-81280000D02*
X124460000Y-83820000D01*
X124460000Y-88900000D02*
X124460000Y-91440000D01*
X124460000Y-88900000D02*
X124460000Y-86360000D01*
X121920000Y-83820000D02*
X121920000Y-86360000D01*
X121920000Y-88900000D02*
X121920000Y-86360000D01*
X121920000Y-81280000D02*
X121920000Y-83820000D01*
X121920000Y-88900000D02*
X121920000Y-91440000D01*
X121920000Y-106680000D02*
X121920000Y-109220000D01*
X121920000Y-99060000D02*
X121920000Y-101600000D01*
X121920000Y-106680000D02*
X121920000Y-104140000D01*
X121920000Y-101600000D02*
X121920000Y-104140000D01*
X114300000Y-99060000D02*
X114300000Y-101600000D01*
X114300000Y-101600000D02*
X114300000Y-104140000D01*
X114300000Y-106680000D02*
X114300000Y-104140000D01*
X114300000Y-106680000D02*
X114300000Y-109220000D01*
X114300000Y-88900000D02*
X114300000Y-86360000D01*
X114300000Y-81280000D02*
X114300000Y-83820000D01*
X114300000Y-88900000D02*
X114300000Y-91440000D01*
X114300000Y-83820000D02*
X114300000Y-86360000D01*
X152400000Y-101600000D02*
X152400000Y-104140000D01*
X152400000Y-99060000D02*
X152400000Y-101600000D01*
X152400000Y-106680000D02*
X152400000Y-109220000D01*
X152400000Y-106680000D02*
X152400000Y-104140000D01*
X152400000Y-81280000D02*
X152400000Y-83820000D01*
X152400000Y-83820000D02*
X152400000Y-86360000D01*
X152400000Y-88900000D02*
X152400000Y-91440000D01*
X152400000Y-88900000D02*
X152400000Y-86360000D01*
X154940000Y-88900000D02*
X154940000Y-91440000D01*
X154940000Y-88900000D02*
X154940000Y-86360000D01*
X154940000Y-81280000D02*
X154940000Y-83820000D01*
X154940000Y-83820000D02*
X154940000Y-86360000D01*
X154940000Y-106680000D02*
X154940000Y-109220000D01*
X154940000Y-99060000D02*
X154940000Y-101600000D01*
X154940000Y-106680000D02*
X154940000Y-104140000D01*
X154940000Y-101600000D02*
X154940000Y-104140000D01*
X157480000Y-101600000D02*
X157480000Y-104140000D01*
X157480000Y-106680000D02*
X157480000Y-104140000D01*
X157480000Y-106680000D02*
X157480000Y-109220000D01*
X157480000Y-99060000D02*
X157480000Y-101600000D01*
X157480000Y-88900000D02*
X157480000Y-86360000D01*
X157480000Y-83820000D02*
X157480000Y-86360000D01*
X157480000Y-81280000D02*
X157480000Y-83820000D01*
X157480000Y-88900000D02*
X157480000Y-91440000D01*
X160020000Y-88900000D02*
X160020000Y-91440000D01*
X160020000Y-81280000D02*
X160020000Y-83820000D01*
X160020000Y-83820000D02*
X160020000Y-86360000D01*
X160020000Y-88900000D02*
X160020000Y-86360000D01*
X160020000Y-106680000D02*
X160020000Y-109220000D01*
X160020000Y-106680000D02*
X160020000Y-104140000D01*
X160020000Y-99060000D02*
X160020000Y-101600000D01*
X160020000Y-101600000D02*
X160020000Y-104140000D01*
M02*
