G04 #@! TF.GenerationSoftware,KiCad,Pcbnew,(5.1.8)-1*
G04 #@! TF.CreationDate,2021-02-07T23:28:03+01:00*
G04 #@! TF.ProjectId,Breadboard 400,42726561-6462-46f6-9172-64203430302e,rev?*
G04 #@! TF.SameCoordinates,Original*
G04 #@! TF.FileFunction,Legend,Top*
G04 #@! TF.FilePolarity,Positive*
%FSLAX46Y46*%
G04 Gerber Fmt 4.6, Leading zero omitted, Abs format (unit mm)*
G04 Created by KiCad (PCBNEW (5.1.8)-1) date 2021-02-07 23:28:03*
%MOMM*%
%LPD*%
G01*
G04 APERTURE LIST*
%ADD10C,0.200000*%
%ADD11C,0.150000*%
%ADD12C,0.120000*%
%ADD13C,0.300000*%
G04 APERTURE END LIST*
D10*
X84455000Y-69215000D02*
X161925000Y-69215000D01*
D11*
X161525000Y-88690476D02*
X161486904Y-88766666D01*
X161486904Y-88880952D01*
X161525000Y-88995238D01*
X161601190Y-89071428D01*
X161677380Y-89109523D01*
X161829761Y-89147619D01*
X161944047Y-89147619D01*
X162096428Y-89109523D01*
X162172619Y-89071428D01*
X162248809Y-88995238D01*
X162286904Y-88880952D01*
X162286904Y-88804761D01*
X162248809Y-88690476D01*
X162210714Y-88652380D01*
X161944047Y-88652380D01*
X161944047Y-88804761D01*
X162286904Y-86531428D02*
X161486904Y-86531428D01*
X162286904Y-86188571D02*
X161867857Y-86188571D01*
X161791666Y-86226666D01*
X161753571Y-86302857D01*
X161753571Y-86417142D01*
X161791666Y-86493333D01*
X161829761Y-86531428D01*
X161867857Y-99231428D02*
X161867857Y-98964761D01*
X162286904Y-98850476D02*
X162286904Y-99231428D01*
X161486904Y-99231428D01*
X161486904Y-98850476D01*
X161867857Y-91325714D02*
X161867857Y-91592380D01*
X162286904Y-91592380D02*
X161486904Y-91592380D01*
X161486904Y-91211428D01*
X161486904Y-81165714D02*
X162058333Y-81165714D01*
X162172619Y-81203809D01*
X162248809Y-81280000D01*
X162286904Y-81394285D01*
X162286904Y-81470476D01*
X162286904Y-83820000D02*
X161486904Y-83820000D01*
X161867857Y-106622857D02*
X161905952Y-106508571D01*
X161944047Y-106470476D01*
X162020238Y-106432380D01*
X162134523Y-106432380D01*
X162210714Y-106470476D01*
X162248809Y-106508571D01*
X162286904Y-106584761D01*
X162286904Y-106889523D01*
X161486904Y-106889523D01*
X161486904Y-106622857D01*
X161525000Y-106546666D01*
X161563095Y-106508571D01*
X161639285Y-106470476D01*
X161715476Y-106470476D01*
X161791666Y-106508571D01*
X161829761Y-106546666D01*
X161867857Y-106622857D01*
X161867857Y-106889523D01*
X162286904Y-101809523D02*
X161486904Y-101809523D01*
X161486904Y-101619047D01*
X161525000Y-101504761D01*
X161601190Y-101428571D01*
X161677380Y-101390476D01*
X161829761Y-101352380D01*
X161944047Y-101352380D01*
X162096428Y-101390476D01*
X162172619Y-101428571D01*
X162248809Y-101504761D01*
X162286904Y-101619047D01*
X162286904Y-101809523D01*
X162058333Y-109410476D02*
X162058333Y-109029523D01*
X162286904Y-109486666D02*
X161486904Y-109220000D01*
X162286904Y-108953333D01*
X162210714Y-103892380D02*
X162248809Y-103930476D01*
X162286904Y-104044761D01*
X162286904Y-104120952D01*
X162248809Y-104235238D01*
X162172619Y-104311428D01*
X162096428Y-104349523D01*
X161944047Y-104387619D01*
X161829761Y-104387619D01*
X161677380Y-104349523D01*
X161601190Y-104311428D01*
X161525000Y-104235238D01*
X161486904Y-104120952D01*
X161486904Y-104044761D01*
X161525000Y-103930476D01*
X161563095Y-103892380D01*
X118332857Y-95192857D02*
X118447142Y-95230952D01*
X118485238Y-95269047D01*
X118523333Y-95345238D01*
X118523333Y-95459523D01*
X118485238Y-95535714D01*
X118447142Y-95573809D01*
X118370952Y-95611904D01*
X118066190Y-95611904D01*
X118066190Y-94811904D01*
X118332857Y-94811904D01*
X118409047Y-94850000D01*
X118447142Y-94888095D01*
X118485238Y-94964285D01*
X118485238Y-95040476D01*
X118447142Y-95116666D01*
X118409047Y-95154761D01*
X118332857Y-95192857D01*
X118066190Y-95192857D01*
X119323333Y-95611904D02*
X119056666Y-95230952D01*
X118866190Y-95611904D02*
X118866190Y-94811904D01*
X119170952Y-94811904D01*
X119247142Y-94850000D01*
X119285238Y-94888095D01*
X119323333Y-94964285D01*
X119323333Y-95078571D01*
X119285238Y-95154761D01*
X119247142Y-95192857D01*
X119170952Y-95230952D01*
X118866190Y-95230952D01*
X119666190Y-95192857D02*
X119932857Y-95192857D01*
X120047142Y-95611904D02*
X119666190Y-95611904D01*
X119666190Y-94811904D01*
X120047142Y-94811904D01*
X120351904Y-95383333D02*
X120732857Y-95383333D01*
X120275714Y-95611904D02*
X120542380Y-94811904D01*
X120809047Y-95611904D01*
X121075714Y-95611904D02*
X121075714Y-94811904D01*
X121266190Y-94811904D01*
X121380476Y-94850000D01*
X121456666Y-94926190D01*
X121494761Y-95002380D01*
X121532857Y-95154761D01*
X121532857Y-95269047D01*
X121494761Y-95421428D01*
X121456666Y-95497619D01*
X121380476Y-95573809D01*
X121266190Y-95611904D01*
X121075714Y-95611904D01*
X122142380Y-95192857D02*
X122256666Y-95230952D01*
X122294761Y-95269047D01*
X122332857Y-95345238D01*
X122332857Y-95459523D01*
X122294761Y-95535714D01*
X122256666Y-95573809D01*
X122180476Y-95611904D01*
X121875714Y-95611904D01*
X121875714Y-94811904D01*
X122142380Y-94811904D01*
X122218571Y-94850000D01*
X122256666Y-94888095D01*
X122294761Y-94964285D01*
X122294761Y-95040476D01*
X122256666Y-95116666D01*
X122218571Y-95154761D01*
X122142380Y-95192857D01*
X121875714Y-95192857D01*
X122828095Y-94811904D02*
X122980476Y-94811904D01*
X123056666Y-94850000D01*
X123132857Y-94926190D01*
X123170952Y-95078571D01*
X123170952Y-95345238D01*
X123132857Y-95497619D01*
X123056666Y-95573809D01*
X122980476Y-95611904D01*
X122828095Y-95611904D01*
X122751904Y-95573809D01*
X122675714Y-95497619D01*
X122637619Y-95345238D01*
X122637619Y-95078571D01*
X122675714Y-94926190D01*
X122751904Y-94850000D01*
X122828095Y-94811904D01*
X123475714Y-95383333D02*
X123856666Y-95383333D01*
X123399523Y-95611904D02*
X123666190Y-94811904D01*
X123932857Y-95611904D01*
X124656666Y-95611904D02*
X124390000Y-95230952D01*
X124199523Y-95611904D02*
X124199523Y-94811904D01*
X124504285Y-94811904D01*
X124580476Y-94850000D01*
X124618571Y-94888095D01*
X124656666Y-94964285D01*
X124656666Y-95078571D01*
X124618571Y-95154761D01*
X124580476Y-95192857D01*
X124504285Y-95230952D01*
X124199523Y-95230952D01*
X124999523Y-95611904D02*
X124999523Y-94811904D01*
X125190000Y-94811904D01*
X125304285Y-94850000D01*
X125380476Y-94926190D01*
X125418571Y-95002380D01*
X125456666Y-95154761D01*
X125456666Y-95269047D01*
X125418571Y-95421428D01*
X125380476Y-95497619D01*
X125304285Y-95573809D01*
X125190000Y-95611904D01*
X124999523Y-95611904D01*
X126751904Y-95078571D02*
X126751904Y-95611904D01*
X126561428Y-94773809D02*
X126370952Y-95345238D01*
X126866190Y-95345238D01*
X127323333Y-94811904D02*
X127399523Y-94811904D01*
X127475714Y-94850000D01*
X127513809Y-94888095D01*
X127551904Y-94964285D01*
X127590000Y-95116666D01*
X127590000Y-95307142D01*
X127551904Y-95459523D01*
X127513809Y-95535714D01*
X127475714Y-95573809D01*
X127399523Y-95611904D01*
X127323333Y-95611904D01*
X127247142Y-95573809D01*
X127209047Y-95535714D01*
X127170952Y-95459523D01*
X127132857Y-95307142D01*
X127132857Y-95116666D01*
X127170952Y-94964285D01*
X127209047Y-94888095D01*
X127247142Y-94850000D01*
X127323333Y-94811904D01*
X128085238Y-94811904D02*
X128161428Y-94811904D01*
X128237619Y-94850000D01*
X128275714Y-94888095D01*
X128313809Y-94964285D01*
X128351904Y-95116666D01*
X128351904Y-95307142D01*
X128313809Y-95459523D01*
X128275714Y-95535714D01*
X128237619Y-95573809D01*
X128161428Y-95611904D01*
X128085238Y-95611904D01*
X128009047Y-95573809D01*
X127970952Y-95535714D01*
X127932857Y-95459523D01*
X127894761Y-95307142D01*
X127894761Y-95116666D01*
X127932857Y-94964285D01*
X127970952Y-94888095D01*
X128009047Y-94850000D01*
X128085238Y-94811904D01*
X107041904Y-111277380D02*
X107041904Y-111125000D01*
X107003809Y-111048809D01*
X106965714Y-111010714D01*
X106851428Y-110934523D01*
X106699047Y-110896428D01*
X106394285Y-110896428D01*
X106318095Y-110934523D01*
X106280000Y-110972619D01*
X106241904Y-111048809D01*
X106241904Y-111201190D01*
X106280000Y-111277380D01*
X106318095Y-111315476D01*
X106394285Y-111353571D01*
X106584761Y-111353571D01*
X106660952Y-111315476D01*
X106699047Y-111277380D01*
X106737142Y-111201190D01*
X106737142Y-111048809D01*
X106699047Y-110972619D01*
X106660952Y-110934523D01*
X106584761Y-110896428D01*
X104044761Y-111201190D02*
X104006666Y-111277380D01*
X103968571Y-111315476D01*
X103892380Y-111353571D01*
X103854285Y-111353571D01*
X103778095Y-111315476D01*
X103740000Y-111277380D01*
X103701904Y-111201190D01*
X103701904Y-111048809D01*
X103740000Y-110972619D01*
X103778095Y-110934523D01*
X103854285Y-110896428D01*
X103892380Y-110896428D01*
X103968571Y-110934523D01*
X104006666Y-110972619D01*
X104044761Y-111048809D01*
X104044761Y-111201190D01*
X104082857Y-111277380D01*
X104120952Y-111315476D01*
X104197142Y-111353571D01*
X104349523Y-111353571D01*
X104425714Y-111315476D01*
X104463809Y-111277380D01*
X104501904Y-111201190D01*
X104501904Y-111048809D01*
X104463809Y-110972619D01*
X104425714Y-110934523D01*
X104349523Y-110896428D01*
X104197142Y-110896428D01*
X104120952Y-110934523D01*
X104082857Y-110972619D01*
X104044761Y-111048809D01*
D12*
X152400000Y-97155000D02*
X93980000Y-97155000D01*
X153035000Y-95885000D02*
X152400000Y-97155000D01*
X153035000Y-94615000D02*
X153035000Y-95885000D01*
X93345000Y-95885000D02*
X93980000Y-97155000D01*
X93345000Y-94615000D02*
X93345000Y-95885000D01*
X93980000Y-93345000D02*
X93345000Y-94615000D01*
X152400000Y-93345000D02*
X93980000Y-93345000D01*
X153035000Y-94615000D02*
X152400000Y-93345000D01*
D10*
X84455000Y-75565000D02*
X161925000Y-75565000D01*
X84455000Y-114935000D02*
X161925000Y-114935000D01*
X84455000Y-121285000D02*
X161925000Y-121285000D01*
D13*
X161817857Y-70548571D02*
X161817857Y-71691428D01*
X161817857Y-116268571D02*
X161817857Y-117411428D01*
X161817857Y-118808571D02*
X161817857Y-119951428D01*
X161246428Y-119380000D02*
X162389285Y-119380000D01*
X161817857Y-73088571D02*
X161817857Y-74231428D01*
X161246428Y-73660000D02*
X162389285Y-73660000D01*
X84562142Y-71691428D02*
X84562142Y-70548571D01*
X84562142Y-74231428D02*
X84562142Y-73088571D01*
X85133571Y-73660000D02*
X83990714Y-73660000D01*
X84562142Y-117411428D02*
X84562142Y-116268571D01*
X84562142Y-119951428D02*
X84562142Y-118808571D01*
X85133571Y-119380000D02*
X83990714Y-119380000D01*
D11*
X84016904Y-81165714D02*
X84588333Y-81165714D01*
X84702619Y-81203809D01*
X84778809Y-81280000D01*
X84816904Y-81394285D01*
X84816904Y-81470476D01*
X84816904Y-83820000D02*
X84016904Y-83820000D01*
X84816904Y-86531428D02*
X84016904Y-86531428D01*
X84816904Y-86188571D02*
X84397857Y-86188571D01*
X84321666Y-86226666D01*
X84283571Y-86302857D01*
X84283571Y-86417142D01*
X84321666Y-86493333D01*
X84359761Y-86531428D01*
X84055000Y-88690476D02*
X84016904Y-88766666D01*
X84016904Y-88880952D01*
X84055000Y-88995238D01*
X84131190Y-89071428D01*
X84207380Y-89109523D01*
X84359761Y-89147619D01*
X84474047Y-89147619D01*
X84626428Y-89109523D01*
X84702619Y-89071428D01*
X84778809Y-88995238D01*
X84816904Y-88880952D01*
X84816904Y-88804761D01*
X84778809Y-88690476D01*
X84740714Y-88652380D01*
X84474047Y-88652380D01*
X84474047Y-88804761D01*
X84397857Y-91325714D02*
X84397857Y-91592380D01*
X84816904Y-91592380D02*
X84016904Y-91592380D01*
X84016904Y-91211428D01*
X84397857Y-99231428D02*
X84397857Y-98964761D01*
X84816904Y-98850476D02*
X84816904Y-99231428D01*
X84016904Y-99231428D01*
X84016904Y-98850476D01*
X84816904Y-101809523D02*
X84016904Y-101809523D01*
X84016904Y-101619047D01*
X84055000Y-101504761D01*
X84131190Y-101428571D01*
X84207380Y-101390476D01*
X84359761Y-101352380D01*
X84474047Y-101352380D01*
X84626428Y-101390476D01*
X84702619Y-101428571D01*
X84778809Y-101504761D01*
X84816904Y-101619047D01*
X84816904Y-101809523D01*
X84740714Y-103892380D02*
X84778809Y-103930476D01*
X84816904Y-104044761D01*
X84816904Y-104120952D01*
X84778809Y-104235238D01*
X84702619Y-104311428D01*
X84626428Y-104349523D01*
X84474047Y-104387619D01*
X84359761Y-104387619D01*
X84207380Y-104349523D01*
X84131190Y-104311428D01*
X84055000Y-104235238D01*
X84016904Y-104120952D01*
X84016904Y-104044761D01*
X84055000Y-103930476D01*
X84093095Y-103892380D01*
X84397857Y-106622857D02*
X84435952Y-106508571D01*
X84474047Y-106470476D01*
X84550238Y-106432380D01*
X84664523Y-106432380D01*
X84740714Y-106470476D01*
X84778809Y-106508571D01*
X84816904Y-106584761D01*
X84816904Y-106889523D01*
X84016904Y-106889523D01*
X84016904Y-106622857D01*
X84055000Y-106546666D01*
X84093095Y-106508571D01*
X84169285Y-106470476D01*
X84245476Y-106470476D01*
X84321666Y-106508571D01*
X84359761Y-106546666D01*
X84397857Y-106622857D01*
X84397857Y-106889523D01*
X84588333Y-109410476D02*
X84588333Y-109029523D01*
X84816904Y-109486666D02*
X84016904Y-109220000D01*
X84816904Y-108953333D01*
X86721904Y-110896428D02*
X86721904Y-111353571D01*
X86721904Y-111125000D02*
X85921904Y-111125000D01*
X86036190Y-111201190D01*
X86112380Y-111277380D01*
X86150476Y-111353571D01*
X96081904Y-110934523D02*
X96081904Y-111315476D01*
X96462857Y-111353571D01*
X96424761Y-111315476D01*
X96386666Y-111239285D01*
X96386666Y-111048809D01*
X96424761Y-110972619D01*
X96462857Y-110934523D01*
X96539047Y-110896428D01*
X96729523Y-110896428D01*
X96805714Y-110934523D01*
X96843809Y-110972619D01*
X96881904Y-111048809D01*
X96881904Y-111239285D01*
X96843809Y-111315476D01*
X96805714Y-111353571D01*
X101161904Y-111391666D02*
X101161904Y-110858333D01*
X101961904Y-111201190D01*
X98621904Y-110972619D02*
X98621904Y-111125000D01*
X98660000Y-111201190D01*
X98698095Y-111239285D01*
X98812380Y-111315476D01*
X98964761Y-111353571D01*
X99269523Y-111353571D01*
X99345714Y-111315476D01*
X99383809Y-111277380D01*
X99421904Y-111201190D01*
X99421904Y-111048809D01*
X99383809Y-110972619D01*
X99345714Y-110934523D01*
X99269523Y-110896428D01*
X99079047Y-110896428D01*
X99002857Y-110934523D01*
X98964761Y-110972619D01*
X98926666Y-111048809D01*
X98926666Y-111201190D01*
X98964761Y-111277380D01*
X99002857Y-111315476D01*
X99079047Y-111353571D01*
X93808571Y-110972619D02*
X94341904Y-110972619D01*
X93503809Y-111163095D02*
X94075238Y-111353571D01*
X94075238Y-110858333D01*
X88538095Y-111353571D02*
X88500000Y-111315476D01*
X88461904Y-111239285D01*
X88461904Y-111048809D01*
X88500000Y-110972619D01*
X88538095Y-110934523D01*
X88614285Y-110896428D01*
X88690476Y-110896428D01*
X88804761Y-110934523D01*
X89261904Y-111391666D01*
X89261904Y-110896428D01*
X91001904Y-111391666D02*
X91001904Y-110896428D01*
X91306666Y-111163095D01*
X91306666Y-111048809D01*
X91344761Y-110972619D01*
X91382857Y-110934523D01*
X91459047Y-110896428D01*
X91649523Y-110896428D01*
X91725714Y-110934523D01*
X91763809Y-110972619D01*
X91801904Y-111048809D01*
X91801904Y-111277380D01*
X91763809Y-111353571D01*
X91725714Y-111391666D01*
X157118095Y-111734523D02*
X157080000Y-111696428D01*
X157041904Y-111620238D01*
X157041904Y-111429761D01*
X157080000Y-111353571D01*
X157118095Y-111315476D01*
X157194285Y-111277380D01*
X157270476Y-111277380D01*
X157384761Y-111315476D01*
X157841904Y-111772619D01*
X157841904Y-111277380D01*
X157841904Y-110896428D02*
X157841904Y-110744047D01*
X157803809Y-110667857D01*
X157765714Y-110629761D01*
X157651428Y-110553571D01*
X157499047Y-110515476D01*
X157194285Y-110515476D01*
X157118095Y-110553571D01*
X157080000Y-110591666D01*
X157041904Y-110667857D01*
X157041904Y-110820238D01*
X157080000Y-110896428D01*
X157118095Y-110934523D01*
X157194285Y-110972619D01*
X157384761Y-110972619D01*
X157460952Y-110934523D01*
X157499047Y-110896428D01*
X157537142Y-110820238D01*
X157537142Y-110667857D01*
X157499047Y-110591666D01*
X157460952Y-110553571D01*
X157384761Y-110515476D01*
X112121904Y-111277380D02*
X112121904Y-111734523D01*
X112121904Y-111505952D02*
X111321904Y-111505952D01*
X111436190Y-111582142D01*
X111512380Y-111658333D01*
X111550476Y-111734523D01*
X112121904Y-110515476D02*
X112121904Y-110972619D01*
X112121904Y-110744047D02*
X111321904Y-110744047D01*
X111436190Y-110820238D01*
X111512380Y-110896428D01*
X111550476Y-110972619D01*
X141878095Y-111734523D02*
X141840000Y-111696428D01*
X141801904Y-111620238D01*
X141801904Y-111429761D01*
X141840000Y-111353571D01*
X141878095Y-111315476D01*
X141954285Y-111277380D01*
X142030476Y-111277380D01*
X142144761Y-111315476D01*
X142601904Y-111772619D01*
X142601904Y-111277380D01*
X141801904Y-111010714D02*
X141801904Y-110515476D01*
X142106666Y-110782142D01*
X142106666Y-110667857D01*
X142144761Y-110591666D01*
X142182857Y-110553571D01*
X142259047Y-110515476D01*
X142449523Y-110515476D01*
X142525714Y-110553571D01*
X142563809Y-110591666D01*
X142601904Y-110667857D01*
X142601904Y-110896428D01*
X142563809Y-110972619D01*
X142525714Y-111010714D01*
X149498095Y-111734523D02*
X149460000Y-111696428D01*
X149421904Y-111620238D01*
X149421904Y-111429761D01*
X149460000Y-111353571D01*
X149498095Y-111315476D01*
X149574285Y-111277380D01*
X149650476Y-111277380D01*
X149764761Y-111315476D01*
X150221904Y-111772619D01*
X150221904Y-111277380D01*
X149421904Y-110591666D02*
X149421904Y-110744047D01*
X149460000Y-110820238D01*
X149498095Y-110858333D01*
X149612380Y-110934523D01*
X149764761Y-110972619D01*
X150069523Y-110972619D01*
X150145714Y-110934523D01*
X150183809Y-110896428D01*
X150221904Y-110820238D01*
X150221904Y-110667857D01*
X150183809Y-110591666D01*
X150145714Y-110553571D01*
X150069523Y-110515476D01*
X149879047Y-110515476D01*
X149802857Y-110553571D01*
X149764761Y-110591666D01*
X149726666Y-110667857D01*
X149726666Y-110820238D01*
X149764761Y-110896428D01*
X149802857Y-110934523D01*
X149879047Y-110972619D01*
X159581904Y-111772619D02*
X159581904Y-111277380D01*
X159886666Y-111544047D01*
X159886666Y-111429761D01*
X159924761Y-111353571D01*
X159962857Y-111315476D01*
X160039047Y-111277380D01*
X160229523Y-111277380D01*
X160305714Y-111315476D01*
X160343809Y-111353571D01*
X160381904Y-111429761D01*
X160381904Y-111658333D01*
X160343809Y-111734523D01*
X160305714Y-111772619D01*
X159581904Y-110782142D02*
X159581904Y-110705952D01*
X159620000Y-110629761D01*
X159658095Y-110591666D01*
X159734285Y-110553571D01*
X159886666Y-110515476D01*
X160077142Y-110515476D01*
X160229523Y-110553571D01*
X160305714Y-110591666D01*
X160343809Y-110629761D01*
X160381904Y-110705952D01*
X160381904Y-110782142D01*
X160343809Y-110858333D01*
X160305714Y-110896428D01*
X160229523Y-110934523D01*
X160077142Y-110972619D01*
X159886666Y-110972619D01*
X159734285Y-110934523D01*
X159658095Y-110896428D01*
X159620000Y-110858333D01*
X159581904Y-110782142D01*
X124821904Y-111277380D02*
X124821904Y-111734523D01*
X124821904Y-111505952D02*
X124021904Y-111505952D01*
X124136190Y-111582142D01*
X124212380Y-111658333D01*
X124250476Y-111734523D01*
X124021904Y-110591666D02*
X124021904Y-110744047D01*
X124060000Y-110820238D01*
X124098095Y-110858333D01*
X124212380Y-110934523D01*
X124364761Y-110972619D01*
X124669523Y-110972619D01*
X124745714Y-110934523D01*
X124783809Y-110896428D01*
X124821904Y-110820238D01*
X124821904Y-110667857D01*
X124783809Y-110591666D01*
X124745714Y-110553571D01*
X124669523Y-110515476D01*
X124479047Y-110515476D01*
X124402857Y-110553571D01*
X124364761Y-110591666D01*
X124326666Y-110667857D01*
X124326666Y-110820238D01*
X124364761Y-110896428D01*
X124402857Y-110934523D01*
X124479047Y-110972619D01*
X152038095Y-111734523D02*
X152000000Y-111696428D01*
X151961904Y-111620238D01*
X151961904Y-111429761D01*
X152000000Y-111353571D01*
X152038095Y-111315476D01*
X152114285Y-111277380D01*
X152190476Y-111277380D01*
X152304761Y-111315476D01*
X152761904Y-111772619D01*
X152761904Y-111277380D01*
X151961904Y-111010714D02*
X151961904Y-110477380D01*
X152761904Y-110820238D01*
X119741904Y-111277380D02*
X119741904Y-111734523D01*
X119741904Y-111505952D02*
X118941904Y-111505952D01*
X119056190Y-111582142D01*
X119132380Y-111658333D01*
X119170476Y-111734523D01*
X119208571Y-110591666D02*
X119741904Y-110591666D01*
X118903809Y-110782142D02*
X119475238Y-110972619D01*
X119475238Y-110477380D01*
X154578095Y-111734523D02*
X154540000Y-111696428D01*
X154501904Y-111620238D01*
X154501904Y-111429761D01*
X154540000Y-111353571D01*
X154578095Y-111315476D01*
X154654285Y-111277380D01*
X154730476Y-111277380D01*
X154844761Y-111315476D01*
X155301904Y-111772619D01*
X155301904Y-111277380D01*
X154844761Y-110820238D02*
X154806666Y-110896428D01*
X154768571Y-110934523D01*
X154692380Y-110972619D01*
X154654285Y-110972619D01*
X154578095Y-110934523D01*
X154540000Y-110896428D01*
X154501904Y-110820238D01*
X154501904Y-110667857D01*
X154540000Y-110591666D01*
X154578095Y-110553571D01*
X154654285Y-110515476D01*
X154692380Y-110515476D01*
X154768571Y-110553571D01*
X154806666Y-110591666D01*
X154844761Y-110667857D01*
X154844761Y-110820238D01*
X154882857Y-110896428D01*
X154920952Y-110934523D01*
X154997142Y-110972619D01*
X155149523Y-110972619D01*
X155225714Y-110934523D01*
X155263809Y-110896428D01*
X155301904Y-110820238D01*
X155301904Y-110667857D01*
X155263809Y-110591666D01*
X155225714Y-110553571D01*
X155149523Y-110515476D01*
X154997142Y-110515476D01*
X154920952Y-110553571D01*
X154882857Y-110591666D01*
X154844761Y-110667857D01*
X122281904Y-111277380D02*
X122281904Y-111734523D01*
X122281904Y-111505952D02*
X121481904Y-111505952D01*
X121596190Y-111582142D01*
X121672380Y-111658333D01*
X121710476Y-111734523D01*
X121481904Y-110553571D02*
X121481904Y-110934523D01*
X121862857Y-110972619D01*
X121824761Y-110934523D01*
X121786666Y-110858333D01*
X121786666Y-110667857D01*
X121824761Y-110591666D01*
X121862857Y-110553571D01*
X121939047Y-110515476D01*
X122129523Y-110515476D01*
X122205714Y-110553571D01*
X122243809Y-110591666D01*
X122281904Y-110667857D01*
X122281904Y-110858333D01*
X122243809Y-110934523D01*
X122205714Y-110972619D01*
X114661904Y-111277380D02*
X114661904Y-111734523D01*
X114661904Y-111505952D02*
X113861904Y-111505952D01*
X113976190Y-111582142D01*
X114052380Y-111658333D01*
X114090476Y-111734523D01*
X113938095Y-110972619D02*
X113900000Y-110934523D01*
X113861904Y-110858333D01*
X113861904Y-110667857D01*
X113900000Y-110591666D01*
X113938095Y-110553571D01*
X114014285Y-110515476D01*
X114090476Y-110515476D01*
X114204761Y-110553571D01*
X114661904Y-111010714D01*
X114661904Y-110515476D01*
X144418095Y-111734523D02*
X144380000Y-111696428D01*
X144341904Y-111620238D01*
X144341904Y-111429761D01*
X144380000Y-111353571D01*
X144418095Y-111315476D01*
X144494285Y-111277380D01*
X144570476Y-111277380D01*
X144684761Y-111315476D01*
X145141904Y-111772619D01*
X145141904Y-111277380D01*
X144608571Y-110591666D02*
X145141904Y-110591666D01*
X144303809Y-110782142D02*
X144875238Y-110972619D01*
X144875238Y-110477380D01*
X134258095Y-111734523D02*
X134220000Y-111696428D01*
X134181904Y-111620238D01*
X134181904Y-111429761D01*
X134220000Y-111353571D01*
X134258095Y-111315476D01*
X134334285Y-111277380D01*
X134410476Y-111277380D01*
X134524761Y-111315476D01*
X134981904Y-111772619D01*
X134981904Y-111277380D01*
X134181904Y-110782142D02*
X134181904Y-110705952D01*
X134220000Y-110629761D01*
X134258095Y-110591666D01*
X134334285Y-110553571D01*
X134486666Y-110515476D01*
X134677142Y-110515476D01*
X134829523Y-110553571D01*
X134905714Y-110591666D01*
X134943809Y-110629761D01*
X134981904Y-110705952D01*
X134981904Y-110782142D01*
X134943809Y-110858333D01*
X134905714Y-110896428D01*
X134829523Y-110934523D01*
X134677142Y-110972619D01*
X134486666Y-110972619D01*
X134334285Y-110934523D01*
X134258095Y-110896428D01*
X134220000Y-110858333D01*
X134181904Y-110782142D01*
X136798095Y-111734523D02*
X136760000Y-111696428D01*
X136721904Y-111620238D01*
X136721904Y-111429761D01*
X136760000Y-111353571D01*
X136798095Y-111315476D01*
X136874285Y-111277380D01*
X136950476Y-111277380D01*
X137064761Y-111315476D01*
X137521904Y-111772619D01*
X137521904Y-111277380D01*
X137521904Y-110515476D02*
X137521904Y-110972619D01*
X137521904Y-110744047D02*
X136721904Y-110744047D01*
X136836190Y-110820238D01*
X136912380Y-110896428D01*
X136950476Y-110972619D01*
X127361904Y-111277380D02*
X127361904Y-111734523D01*
X127361904Y-111505952D02*
X126561904Y-111505952D01*
X126676190Y-111582142D01*
X126752380Y-111658333D01*
X126790476Y-111734523D01*
X126561904Y-111010714D02*
X126561904Y-110477380D01*
X127361904Y-110820238D01*
X146958095Y-111734523D02*
X146920000Y-111696428D01*
X146881904Y-111620238D01*
X146881904Y-111429761D01*
X146920000Y-111353571D01*
X146958095Y-111315476D01*
X147034285Y-111277380D01*
X147110476Y-111277380D01*
X147224761Y-111315476D01*
X147681904Y-111772619D01*
X147681904Y-111277380D01*
X146881904Y-110553571D02*
X146881904Y-110934523D01*
X147262857Y-110972619D01*
X147224761Y-110934523D01*
X147186666Y-110858333D01*
X147186666Y-110667857D01*
X147224761Y-110591666D01*
X147262857Y-110553571D01*
X147339047Y-110515476D01*
X147529523Y-110515476D01*
X147605714Y-110553571D01*
X147643809Y-110591666D01*
X147681904Y-110667857D01*
X147681904Y-110858333D01*
X147643809Y-110934523D01*
X147605714Y-110972619D01*
X109581904Y-111277380D02*
X109581904Y-111734523D01*
X109581904Y-111505952D02*
X108781904Y-111505952D01*
X108896190Y-111582142D01*
X108972380Y-111658333D01*
X109010476Y-111734523D01*
X108781904Y-110782142D02*
X108781904Y-110705952D01*
X108820000Y-110629761D01*
X108858095Y-110591666D01*
X108934285Y-110553571D01*
X109086666Y-110515476D01*
X109277142Y-110515476D01*
X109429523Y-110553571D01*
X109505714Y-110591666D01*
X109543809Y-110629761D01*
X109581904Y-110705952D01*
X109581904Y-110782142D01*
X109543809Y-110858333D01*
X109505714Y-110896428D01*
X109429523Y-110934523D01*
X109277142Y-110972619D01*
X109086666Y-110972619D01*
X108934285Y-110934523D01*
X108858095Y-110896428D01*
X108820000Y-110858333D01*
X108781904Y-110782142D01*
X117201904Y-111277380D02*
X117201904Y-111734523D01*
X117201904Y-111505952D02*
X116401904Y-111505952D01*
X116516190Y-111582142D01*
X116592380Y-111658333D01*
X116630476Y-111734523D01*
X116401904Y-111010714D02*
X116401904Y-110515476D01*
X116706666Y-110782142D01*
X116706666Y-110667857D01*
X116744761Y-110591666D01*
X116782857Y-110553571D01*
X116859047Y-110515476D01*
X117049523Y-110515476D01*
X117125714Y-110553571D01*
X117163809Y-110591666D01*
X117201904Y-110667857D01*
X117201904Y-110896428D01*
X117163809Y-110972619D01*
X117125714Y-111010714D01*
X132441904Y-111277380D02*
X132441904Y-111734523D01*
X132441904Y-111505952D02*
X131641904Y-111505952D01*
X131756190Y-111582142D01*
X131832380Y-111658333D01*
X131870476Y-111734523D01*
X132441904Y-110896428D02*
X132441904Y-110744047D01*
X132403809Y-110667857D01*
X132365714Y-110629761D01*
X132251428Y-110553571D01*
X132099047Y-110515476D01*
X131794285Y-110515476D01*
X131718095Y-110553571D01*
X131680000Y-110591666D01*
X131641904Y-110667857D01*
X131641904Y-110820238D01*
X131680000Y-110896428D01*
X131718095Y-110934523D01*
X131794285Y-110972619D01*
X131984761Y-110972619D01*
X132060952Y-110934523D01*
X132099047Y-110896428D01*
X132137142Y-110820238D01*
X132137142Y-110667857D01*
X132099047Y-110591666D01*
X132060952Y-110553571D01*
X131984761Y-110515476D01*
X139338095Y-111734523D02*
X139300000Y-111696428D01*
X139261904Y-111620238D01*
X139261904Y-111429761D01*
X139300000Y-111353571D01*
X139338095Y-111315476D01*
X139414285Y-111277380D01*
X139490476Y-111277380D01*
X139604761Y-111315476D01*
X140061904Y-111772619D01*
X140061904Y-111277380D01*
X139338095Y-110972619D02*
X139300000Y-110934523D01*
X139261904Y-110858333D01*
X139261904Y-110667857D01*
X139300000Y-110591666D01*
X139338095Y-110553571D01*
X139414285Y-110515476D01*
X139490476Y-110515476D01*
X139604761Y-110553571D01*
X140061904Y-111010714D01*
X140061904Y-110515476D01*
X129901904Y-111277380D02*
X129901904Y-111734523D01*
X129901904Y-111505952D02*
X129101904Y-111505952D01*
X129216190Y-111582142D01*
X129292380Y-111658333D01*
X129330476Y-111734523D01*
X129444761Y-110820238D02*
X129406666Y-110896428D01*
X129368571Y-110934523D01*
X129292380Y-110972619D01*
X129254285Y-110972619D01*
X129178095Y-110934523D01*
X129140000Y-110896428D01*
X129101904Y-110820238D01*
X129101904Y-110667857D01*
X129140000Y-110591666D01*
X129178095Y-110553571D01*
X129254285Y-110515476D01*
X129292380Y-110515476D01*
X129368571Y-110553571D01*
X129406666Y-110591666D01*
X129444761Y-110667857D01*
X129444761Y-110820238D01*
X129482857Y-110896428D01*
X129520952Y-110934523D01*
X129597142Y-110972619D01*
X129749523Y-110972619D01*
X129825714Y-110934523D01*
X129863809Y-110896428D01*
X129901904Y-110820238D01*
X129901904Y-110667857D01*
X129863809Y-110591666D01*
X129825714Y-110553571D01*
X129749523Y-110515476D01*
X129597142Y-110515476D01*
X129520952Y-110553571D01*
X129482857Y-110591666D01*
X129444761Y-110667857D01*
X136798095Y-79984523D02*
X136760000Y-79946428D01*
X136721904Y-79870238D01*
X136721904Y-79679761D01*
X136760000Y-79603571D01*
X136798095Y-79565476D01*
X136874285Y-79527380D01*
X136950476Y-79527380D01*
X137064761Y-79565476D01*
X137521904Y-80022619D01*
X137521904Y-79527380D01*
X137521904Y-78765476D02*
X137521904Y-79222619D01*
X137521904Y-78994047D02*
X136721904Y-78994047D01*
X136836190Y-79070238D01*
X136912380Y-79146428D01*
X136950476Y-79222619D01*
X146958095Y-79984523D02*
X146920000Y-79946428D01*
X146881904Y-79870238D01*
X146881904Y-79679761D01*
X146920000Y-79603571D01*
X146958095Y-79565476D01*
X147034285Y-79527380D01*
X147110476Y-79527380D01*
X147224761Y-79565476D01*
X147681904Y-80022619D01*
X147681904Y-79527380D01*
X146881904Y-78803571D02*
X146881904Y-79184523D01*
X147262857Y-79222619D01*
X147224761Y-79184523D01*
X147186666Y-79108333D01*
X147186666Y-78917857D01*
X147224761Y-78841666D01*
X147262857Y-78803571D01*
X147339047Y-78765476D01*
X147529523Y-78765476D01*
X147605714Y-78803571D01*
X147643809Y-78841666D01*
X147681904Y-78917857D01*
X147681904Y-79108333D01*
X147643809Y-79184523D01*
X147605714Y-79222619D01*
X152038095Y-79984523D02*
X152000000Y-79946428D01*
X151961904Y-79870238D01*
X151961904Y-79679761D01*
X152000000Y-79603571D01*
X152038095Y-79565476D01*
X152114285Y-79527380D01*
X152190476Y-79527380D01*
X152304761Y-79565476D01*
X152761904Y-80022619D01*
X152761904Y-79527380D01*
X151961904Y-79260714D02*
X151961904Y-78727380D01*
X152761904Y-79070238D01*
X149498095Y-79984523D02*
X149460000Y-79946428D01*
X149421904Y-79870238D01*
X149421904Y-79679761D01*
X149460000Y-79603571D01*
X149498095Y-79565476D01*
X149574285Y-79527380D01*
X149650476Y-79527380D01*
X149764761Y-79565476D01*
X150221904Y-80022619D01*
X150221904Y-79527380D01*
X149421904Y-78841666D02*
X149421904Y-78994047D01*
X149460000Y-79070238D01*
X149498095Y-79108333D01*
X149612380Y-79184523D01*
X149764761Y-79222619D01*
X150069523Y-79222619D01*
X150145714Y-79184523D01*
X150183809Y-79146428D01*
X150221904Y-79070238D01*
X150221904Y-78917857D01*
X150183809Y-78841666D01*
X150145714Y-78803571D01*
X150069523Y-78765476D01*
X149879047Y-78765476D01*
X149802857Y-78803571D01*
X149764761Y-78841666D01*
X149726666Y-78917857D01*
X149726666Y-79070238D01*
X149764761Y-79146428D01*
X149802857Y-79184523D01*
X149879047Y-79222619D01*
X144418095Y-79984523D02*
X144380000Y-79946428D01*
X144341904Y-79870238D01*
X144341904Y-79679761D01*
X144380000Y-79603571D01*
X144418095Y-79565476D01*
X144494285Y-79527380D01*
X144570476Y-79527380D01*
X144684761Y-79565476D01*
X145141904Y-80022619D01*
X145141904Y-79527380D01*
X144608571Y-78841666D02*
X145141904Y-78841666D01*
X144303809Y-79032142D02*
X144875238Y-79222619D01*
X144875238Y-78727380D01*
X139338095Y-79984523D02*
X139300000Y-79946428D01*
X139261904Y-79870238D01*
X139261904Y-79679761D01*
X139300000Y-79603571D01*
X139338095Y-79565476D01*
X139414285Y-79527380D01*
X139490476Y-79527380D01*
X139604761Y-79565476D01*
X140061904Y-80022619D01*
X140061904Y-79527380D01*
X139338095Y-79222619D02*
X139300000Y-79184523D01*
X139261904Y-79108333D01*
X139261904Y-78917857D01*
X139300000Y-78841666D01*
X139338095Y-78803571D01*
X139414285Y-78765476D01*
X139490476Y-78765476D01*
X139604761Y-78803571D01*
X140061904Y-79260714D01*
X140061904Y-78765476D01*
X141878095Y-79984523D02*
X141840000Y-79946428D01*
X141801904Y-79870238D01*
X141801904Y-79679761D01*
X141840000Y-79603571D01*
X141878095Y-79565476D01*
X141954285Y-79527380D01*
X142030476Y-79527380D01*
X142144761Y-79565476D01*
X142601904Y-80022619D01*
X142601904Y-79527380D01*
X141801904Y-79260714D02*
X141801904Y-78765476D01*
X142106666Y-79032142D01*
X142106666Y-78917857D01*
X142144761Y-78841666D01*
X142182857Y-78803571D01*
X142259047Y-78765476D01*
X142449523Y-78765476D01*
X142525714Y-78803571D01*
X142563809Y-78841666D01*
X142601904Y-78917857D01*
X142601904Y-79146428D01*
X142563809Y-79222619D01*
X142525714Y-79260714D01*
X154578095Y-79984523D02*
X154540000Y-79946428D01*
X154501904Y-79870238D01*
X154501904Y-79679761D01*
X154540000Y-79603571D01*
X154578095Y-79565476D01*
X154654285Y-79527380D01*
X154730476Y-79527380D01*
X154844761Y-79565476D01*
X155301904Y-80022619D01*
X155301904Y-79527380D01*
X154844761Y-79070238D02*
X154806666Y-79146428D01*
X154768571Y-79184523D01*
X154692380Y-79222619D01*
X154654285Y-79222619D01*
X154578095Y-79184523D01*
X154540000Y-79146428D01*
X154501904Y-79070238D01*
X154501904Y-78917857D01*
X154540000Y-78841666D01*
X154578095Y-78803571D01*
X154654285Y-78765476D01*
X154692380Y-78765476D01*
X154768571Y-78803571D01*
X154806666Y-78841666D01*
X154844761Y-78917857D01*
X154844761Y-79070238D01*
X154882857Y-79146428D01*
X154920952Y-79184523D01*
X154997142Y-79222619D01*
X155149523Y-79222619D01*
X155225714Y-79184523D01*
X155263809Y-79146428D01*
X155301904Y-79070238D01*
X155301904Y-78917857D01*
X155263809Y-78841666D01*
X155225714Y-78803571D01*
X155149523Y-78765476D01*
X154997142Y-78765476D01*
X154920952Y-78803571D01*
X154882857Y-78841666D01*
X154844761Y-78917857D01*
X157118095Y-79984523D02*
X157080000Y-79946428D01*
X157041904Y-79870238D01*
X157041904Y-79679761D01*
X157080000Y-79603571D01*
X157118095Y-79565476D01*
X157194285Y-79527380D01*
X157270476Y-79527380D01*
X157384761Y-79565476D01*
X157841904Y-80022619D01*
X157841904Y-79527380D01*
X157841904Y-79146428D02*
X157841904Y-78994047D01*
X157803809Y-78917857D01*
X157765714Y-78879761D01*
X157651428Y-78803571D01*
X157499047Y-78765476D01*
X157194285Y-78765476D01*
X157118095Y-78803571D01*
X157080000Y-78841666D01*
X157041904Y-78917857D01*
X157041904Y-79070238D01*
X157080000Y-79146428D01*
X157118095Y-79184523D01*
X157194285Y-79222619D01*
X157384761Y-79222619D01*
X157460952Y-79184523D01*
X157499047Y-79146428D01*
X157537142Y-79070238D01*
X157537142Y-78917857D01*
X157499047Y-78841666D01*
X157460952Y-78803571D01*
X157384761Y-78765476D01*
X159581904Y-80022619D02*
X159581904Y-79527380D01*
X159886666Y-79794047D01*
X159886666Y-79679761D01*
X159924761Y-79603571D01*
X159962857Y-79565476D01*
X160039047Y-79527380D01*
X160229523Y-79527380D01*
X160305714Y-79565476D01*
X160343809Y-79603571D01*
X160381904Y-79679761D01*
X160381904Y-79908333D01*
X160343809Y-79984523D01*
X160305714Y-80022619D01*
X159581904Y-79032142D02*
X159581904Y-78955952D01*
X159620000Y-78879761D01*
X159658095Y-78841666D01*
X159734285Y-78803571D01*
X159886666Y-78765476D01*
X160077142Y-78765476D01*
X160229523Y-78803571D01*
X160305714Y-78841666D01*
X160343809Y-78879761D01*
X160381904Y-78955952D01*
X160381904Y-79032142D01*
X160343809Y-79108333D01*
X160305714Y-79146428D01*
X160229523Y-79184523D01*
X160077142Y-79222619D01*
X159886666Y-79222619D01*
X159734285Y-79184523D01*
X159658095Y-79146428D01*
X159620000Y-79108333D01*
X159581904Y-79032142D01*
X112121904Y-79527380D02*
X112121904Y-79984523D01*
X112121904Y-79755952D02*
X111321904Y-79755952D01*
X111436190Y-79832142D01*
X111512380Y-79908333D01*
X111550476Y-79984523D01*
X112121904Y-78765476D02*
X112121904Y-79222619D01*
X112121904Y-78994047D02*
X111321904Y-78994047D01*
X111436190Y-79070238D01*
X111512380Y-79146428D01*
X111550476Y-79222619D01*
X122281904Y-79527380D02*
X122281904Y-79984523D01*
X122281904Y-79755952D02*
X121481904Y-79755952D01*
X121596190Y-79832142D01*
X121672380Y-79908333D01*
X121710476Y-79984523D01*
X121481904Y-78803571D02*
X121481904Y-79184523D01*
X121862857Y-79222619D01*
X121824761Y-79184523D01*
X121786666Y-79108333D01*
X121786666Y-78917857D01*
X121824761Y-78841666D01*
X121862857Y-78803571D01*
X121939047Y-78765476D01*
X122129523Y-78765476D01*
X122205714Y-78803571D01*
X122243809Y-78841666D01*
X122281904Y-78917857D01*
X122281904Y-79108333D01*
X122243809Y-79184523D01*
X122205714Y-79222619D01*
X127361904Y-79527380D02*
X127361904Y-79984523D01*
X127361904Y-79755952D02*
X126561904Y-79755952D01*
X126676190Y-79832142D01*
X126752380Y-79908333D01*
X126790476Y-79984523D01*
X126561904Y-79260714D02*
X126561904Y-78727380D01*
X127361904Y-79070238D01*
X124821904Y-79527380D02*
X124821904Y-79984523D01*
X124821904Y-79755952D02*
X124021904Y-79755952D01*
X124136190Y-79832142D01*
X124212380Y-79908333D01*
X124250476Y-79984523D01*
X124021904Y-78841666D02*
X124021904Y-78994047D01*
X124060000Y-79070238D01*
X124098095Y-79108333D01*
X124212380Y-79184523D01*
X124364761Y-79222619D01*
X124669523Y-79222619D01*
X124745714Y-79184523D01*
X124783809Y-79146428D01*
X124821904Y-79070238D01*
X124821904Y-78917857D01*
X124783809Y-78841666D01*
X124745714Y-78803571D01*
X124669523Y-78765476D01*
X124479047Y-78765476D01*
X124402857Y-78803571D01*
X124364761Y-78841666D01*
X124326666Y-78917857D01*
X124326666Y-79070238D01*
X124364761Y-79146428D01*
X124402857Y-79184523D01*
X124479047Y-79222619D01*
X119741904Y-79527380D02*
X119741904Y-79984523D01*
X119741904Y-79755952D02*
X118941904Y-79755952D01*
X119056190Y-79832142D01*
X119132380Y-79908333D01*
X119170476Y-79984523D01*
X119208571Y-78841666D02*
X119741904Y-78841666D01*
X118903809Y-79032142D02*
X119475238Y-79222619D01*
X119475238Y-78727380D01*
X114661904Y-79527380D02*
X114661904Y-79984523D01*
X114661904Y-79755952D02*
X113861904Y-79755952D01*
X113976190Y-79832142D01*
X114052380Y-79908333D01*
X114090476Y-79984523D01*
X113938095Y-79222619D02*
X113900000Y-79184523D01*
X113861904Y-79108333D01*
X113861904Y-78917857D01*
X113900000Y-78841666D01*
X113938095Y-78803571D01*
X114014285Y-78765476D01*
X114090476Y-78765476D01*
X114204761Y-78803571D01*
X114661904Y-79260714D01*
X114661904Y-78765476D01*
X117201904Y-79527380D02*
X117201904Y-79984523D01*
X117201904Y-79755952D02*
X116401904Y-79755952D01*
X116516190Y-79832142D01*
X116592380Y-79908333D01*
X116630476Y-79984523D01*
X116401904Y-79260714D02*
X116401904Y-78765476D01*
X116706666Y-79032142D01*
X116706666Y-78917857D01*
X116744761Y-78841666D01*
X116782857Y-78803571D01*
X116859047Y-78765476D01*
X117049523Y-78765476D01*
X117125714Y-78803571D01*
X117163809Y-78841666D01*
X117201904Y-78917857D01*
X117201904Y-79146428D01*
X117163809Y-79222619D01*
X117125714Y-79260714D01*
X129901904Y-79527380D02*
X129901904Y-79984523D01*
X129901904Y-79755952D02*
X129101904Y-79755952D01*
X129216190Y-79832142D01*
X129292380Y-79908333D01*
X129330476Y-79984523D01*
X129444761Y-79070238D02*
X129406666Y-79146428D01*
X129368571Y-79184523D01*
X129292380Y-79222619D01*
X129254285Y-79222619D01*
X129178095Y-79184523D01*
X129140000Y-79146428D01*
X129101904Y-79070238D01*
X129101904Y-78917857D01*
X129140000Y-78841666D01*
X129178095Y-78803571D01*
X129254285Y-78765476D01*
X129292380Y-78765476D01*
X129368571Y-78803571D01*
X129406666Y-78841666D01*
X129444761Y-78917857D01*
X129444761Y-79070238D01*
X129482857Y-79146428D01*
X129520952Y-79184523D01*
X129597142Y-79222619D01*
X129749523Y-79222619D01*
X129825714Y-79184523D01*
X129863809Y-79146428D01*
X129901904Y-79070238D01*
X129901904Y-78917857D01*
X129863809Y-78841666D01*
X129825714Y-78803571D01*
X129749523Y-78765476D01*
X129597142Y-78765476D01*
X129520952Y-78803571D01*
X129482857Y-78841666D01*
X129444761Y-78917857D01*
X132441904Y-79527380D02*
X132441904Y-79984523D01*
X132441904Y-79755952D02*
X131641904Y-79755952D01*
X131756190Y-79832142D01*
X131832380Y-79908333D01*
X131870476Y-79984523D01*
X132441904Y-79146428D02*
X132441904Y-78994047D01*
X132403809Y-78917857D01*
X132365714Y-78879761D01*
X132251428Y-78803571D01*
X132099047Y-78765476D01*
X131794285Y-78765476D01*
X131718095Y-78803571D01*
X131680000Y-78841666D01*
X131641904Y-78917857D01*
X131641904Y-79070238D01*
X131680000Y-79146428D01*
X131718095Y-79184523D01*
X131794285Y-79222619D01*
X131984761Y-79222619D01*
X132060952Y-79184523D01*
X132099047Y-79146428D01*
X132137142Y-79070238D01*
X132137142Y-78917857D01*
X132099047Y-78841666D01*
X132060952Y-78803571D01*
X131984761Y-78765476D01*
X134258095Y-79984523D02*
X134220000Y-79946428D01*
X134181904Y-79870238D01*
X134181904Y-79679761D01*
X134220000Y-79603571D01*
X134258095Y-79565476D01*
X134334285Y-79527380D01*
X134410476Y-79527380D01*
X134524761Y-79565476D01*
X134981904Y-80022619D01*
X134981904Y-79527380D01*
X134181904Y-79032142D02*
X134181904Y-78955952D01*
X134220000Y-78879761D01*
X134258095Y-78841666D01*
X134334285Y-78803571D01*
X134486666Y-78765476D01*
X134677142Y-78765476D01*
X134829523Y-78803571D01*
X134905714Y-78841666D01*
X134943809Y-78879761D01*
X134981904Y-78955952D01*
X134981904Y-79032142D01*
X134943809Y-79108333D01*
X134905714Y-79146428D01*
X134829523Y-79184523D01*
X134677142Y-79222619D01*
X134486666Y-79222619D01*
X134334285Y-79184523D01*
X134258095Y-79146428D01*
X134220000Y-79108333D01*
X134181904Y-79032142D01*
X109581904Y-79527380D02*
X109581904Y-79984523D01*
X109581904Y-79755952D02*
X108781904Y-79755952D01*
X108896190Y-79832142D01*
X108972380Y-79908333D01*
X109010476Y-79984523D01*
X108781904Y-79032142D02*
X108781904Y-78955952D01*
X108820000Y-78879761D01*
X108858095Y-78841666D01*
X108934285Y-78803571D01*
X109086666Y-78765476D01*
X109277142Y-78765476D01*
X109429523Y-78803571D01*
X109505714Y-78841666D01*
X109543809Y-78879761D01*
X109581904Y-78955952D01*
X109581904Y-79032142D01*
X109543809Y-79108333D01*
X109505714Y-79146428D01*
X109429523Y-79184523D01*
X109277142Y-79222619D01*
X109086666Y-79222619D01*
X108934285Y-79184523D01*
X108858095Y-79146428D01*
X108820000Y-79108333D01*
X108781904Y-79032142D01*
X107041904Y-79527380D02*
X107041904Y-79375000D01*
X107003809Y-79298809D01*
X106965714Y-79260714D01*
X106851428Y-79184523D01*
X106699047Y-79146428D01*
X106394285Y-79146428D01*
X106318095Y-79184523D01*
X106280000Y-79222619D01*
X106241904Y-79298809D01*
X106241904Y-79451190D01*
X106280000Y-79527380D01*
X106318095Y-79565476D01*
X106394285Y-79603571D01*
X106584761Y-79603571D01*
X106660952Y-79565476D01*
X106699047Y-79527380D01*
X106737142Y-79451190D01*
X106737142Y-79298809D01*
X106699047Y-79222619D01*
X106660952Y-79184523D01*
X106584761Y-79146428D01*
X104044761Y-79451190D02*
X104006666Y-79527380D01*
X103968571Y-79565476D01*
X103892380Y-79603571D01*
X103854285Y-79603571D01*
X103778095Y-79565476D01*
X103740000Y-79527380D01*
X103701904Y-79451190D01*
X103701904Y-79298809D01*
X103740000Y-79222619D01*
X103778095Y-79184523D01*
X103854285Y-79146428D01*
X103892380Y-79146428D01*
X103968571Y-79184523D01*
X104006666Y-79222619D01*
X104044761Y-79298809D01*
X104044761Y-79451190D01*
X104082857Y-79527380D01*
X104120952Y-79565476D01*
X104197142Y-79603571D01*
X104349523Y-79603571D01*
X104425714Y-79565476D01*
X104463809Y-79527380D01*
X104501904Y-79451190D01*
X104501904Y-79298809D01*
X104463809Y-79222619D01*
X104425714Y-79184523D01*
X104349523Y-79146428D01*
X104197142Y-79146428D01*
X104120952Y-79184523D01*
X104082857Y-79222619D01*
X104044761Y-79298809D01*
X101161904Y-79641666D02*
X101161904Y-79108333D01*
X101961904Y-79451190D01*
X98621904Y-79222619D02*
X98621904Y-79375000D01*
X98660000Y-79451190D01*
X98698095Y-79489285D01*
X98812380Y-79565476D01*
X98964761Y-79603571D01*
X99269523Y-79603571D01*
X99345714Y-79565476D01*
X99383809Y-79527380D01*
X99421904Y-79451190D01*
X99421904Y-79298809D01*
X99383809Y-79222619D01*
X99345714Y-79184523D01*
X99269523Y-79146428D01*
X99079047Y-79146428D01*
X99002857Y-79184523D01*
X98964761Y-79222619D01*
X98926666Y-79298809D01*
X98926666Y-79451190D01*
X98964761Y-79527380D01*
X99002857Y-79565476D01*
X99079047Y-79603571D01*
X96081904Y-79184523D02*
X96081904Y-79565476D01*
X96462857Y-79603571D01*
X96424761Y-79565476D01*
X96386666Y-79489285D01*
X96386666Y-79298809D01*
X96424761Y-79222619D01*
X96462857Y-79184523D01*
X96539047Y-79146428D01*
X96729523Y-79146428D01*
X96805714Y-79184523D01*
X96843809Y-79222619D01*
X96881904Y-79298809D01*
X96881904Y-79489285D01*
X96843809Y-79565476D01*
X96805714Y-79603571D01*
X93808571Y-79222619D02*
X94341904Y-79222619D01*
X93503809Y-79413095D02*
X94075238Y-79603571D01*
X94075238Y-79108333D01*
X91001904Y-79641666D02*
X91001904Y-79146428D01*
X91306666Y-79413095D01*
X91306666Y-79298809D01*
X91344761Y-79222619D01*
X91382857Y-79184523D01*
X91459047Y-79146428D01*
X91649523Y-79146428D01*
X91725714Y-79184523D01*
X91763809Y-79222619D01*
X91801904Y-79298809D01*
X91801904Y-79527380D01*
X91763809Y-79603571D01*
X91725714Y-79641666D01*
X88538095Y-79603571D02*
X88500000Y-79565476D01*
X88461904Y-79489285D01*
X88461904Y-79298809D01*
X88500000Y-79222619D01*
X88538095Y-79184523D01*
X88614285Y-79146428D01*
X88690476Y-79146428D01*
X88804761Y-79184523D01*
X89261904Y-79641666D01*
X89261904Y-79146428D01*
X86721904Y-79146428D02*
X86721904Y-79603571D01*
X86721904Y-79375000D02*
X85921904Y-79375000D01*
X86036190Y-79451190D01*
X86112380Y-79527380D01*
X86150476Y-79603571D01*
M02*
