G04 #@! TF.GenerationSoftware,KiCad,Pcbnew,(5.1.8)-1*
G04 #@! TF.CreationDate,2021-02-07T23:28:57+01:00*
G04 #@! TF.ProjectId,Breadboard 830,42726561-6462-46f6-9172-64203833302e,rev?*
G04 #@! TF.SameCoordinates,Original*
G04 #@! TF.FileFunction,Copper,L2,Bot*
G04 #@! TF.FilePolarity,Positive*
%FSLAX46Y46*%
G04 Gerber Fmt 4.6, Leading zero omitted, Abs format (unit mm)*
G04 Created by KiCad (PCBNEW (5.1.8)-1) date 2021-02-07 23:28:57*
%MOMM*%
%LPD*%
G01*
G04 APERTURE LIST*
G04 #@! TA.AperFunction,SMDPad,CuDef*
%ADD10R,1.900000X1.600000*%
G04 #@! TD*
G04 #@! TA.AperFunction,WasherPad*
%ADD11C,3.500000*%
G04 #@! TD*
G04 #@! TA.AperFunction,ComponentPad*
%ADD12O,1.700000X1.700000*%
G04 #@! TD*
G04 #@! TA.AperFunction,SMDPad,CuDef*
%ADD13R,2.000000X1.500000*%
G04 #@! TD*
G04 #@! TA.AperFunction,Conductor*
%ADD14C,0.381000*%
G04 #@! TD*
G04 APERTURE END LIST*
D10*
X166370000Y-71120000D03*
X163830000Y-71120000D03*
X166370000Y-73660000D03*
X163830000Y-73660000D03*
X166370000Y-116840000D03*
X163830000Y-116840000D03*
X166370000Y-119380000D03*
X163830000Y-119380000D03*
D11*
X240030000Y-95250000D03*
X90170000Y-95250000D03*
D12*
X132080000Y-116840000D03*
X129540000Y-116840000D03*
X127000000Y-116840000D03*
X124460000Y-116840000D03*
X121920000Y-116840000D03*
X121920000Y-119380000D03*
X124460000Y-119380000D03*
X127000000Y-119380000D03*
X129540000Y-119380000D03*
X132080000Y-119380000D03*
X101600000Y-116840000D03*
X99060000Y-116840000D03*
X96520000Y-116840000D03*
X93980000Y-116840000D03*
X91440000Y-116840000D03*
X91440000Y-119380000D03*
X93980000Y-119380000D03*
X96520000Y-119380000D03*
X99060000Y-119380000D03*
X101600000Y-119380000D03*
X116840000Y-116840000D03*
X114300000Y-116840000D03*
X111760000Y-116840000D03*
X109220000Y-116840000D03*
X106680000Y-116840000D03*
X106680000Y-119380000D03*
X109220000Y-119380000D03*
X111760000Y-119380000D03*
X114300000Y-119380000D03*
X116840000Y-119380000D03*
X208280000Y-116840000D03*
X205740000Y-116840000D03*
X203200000Y-116840000D03*
X200660000Y-116840000D03*
X198120000Y-116840000D03*
X198120000Y-119380000D03*
X200660000Y-119380000D03*
X203200000Y-119380000D03*
X205740000Y-119380000D03*
X208280000Y-119380000D03*
X238760000Y-116840000D03*
X236220000Y-116840000D03*
X233680000Y-116840000D03*
X231140000Y-116840000D03*
X228600000Y-116840000D03*
X228600000Y-119380000D03*
X231140000Y-119380000D03*
X233680000Y-119380000D03*
X236220000Y-119380000D03*
X238760000Y-119380000D03*
X193040000Y-116840000D03*
X190500000Y-116840000D03*
X187960000Y-116840000D03*
X185420000Y-116840000D03*
X182880000Y-116840000D03*
X182880000Y-119380000D03*
X185420000Y-119380000D03*
X187960000Y-119380000D03*
X190500000Y-119380000D03*
X193040000Y-119380000D03*
X162560000Y-116840000D03*
X160020000Y-116840000D03*
X157480000Y-116840000D03*
X154940000Y-116840000D03*
X152400000Y-116840000D03*
X152400000Y-119380000D03*
X154940000Y-119380000D03*
X157480000Y-119380000D03*
X160020000Y-119380000D03*
X162560000Y-119380000D03*
X177800000Y-116840000D03*
X175260000Y-116840000D03*
X172720000Y-116840000D03*
X170180000Y-116840000D03*
X167640000Y-116840000D03*
X167640000Y-119380000D03*
X170180000Y-119380000D03*
X172720000Y-119380000D03*
X175260000Y-119380000D03*
X177800000Y-119380000D03*
X147320000Y-116840000D03*
X144780000Y-116840000D03*
X142240000Y-116840000D03*
X139700000Y-116840000D03*
X137160000Y-116840000D03*
X137160000Y-119380000D03*
X139700000Y-119380000D03*
X142240000Y-119380000D03*
X144780000Y-119380000D03*
X147320000Y-119380000D03*
X223520000Y-116840000D03*
X220980000Y-116840000D03*
X218440000Y-116840000D03*
X215900000Y-116840000D03*
X213360000Y-116840000D03*
X213360000Y-119380000D03*
X215900000Y-119380000D03*
X218440000Y-119380000D03*
X220980000Y-119380000D03*
X223520000Y-119380000D03*
X193040000Y-71120000D03*
X190500000Y-71120000D03*
X187960000Y-71120000D03*
X185420000Y-71120000D03*
X182880000Y-71120000D03*
X182880000Y-73660000D03*
X185420000Y-73660000D03*
X187960000Y-73660000D03*
X190500000Y-73660000D03*
X193040000Y-73660000D03*
X223520000Y-71120000D03*
X220980000Y-71120000D03*
X218440000Y-71120000D03*
X215900000Y-71120000D03*
X213360000Y-71120000D03*
X213360000Y-73660000D03*
X215900000Y-73660000D03*
X218440000Y-73660000D03*
X220980000Y-73660000D03*
X223520000Y-73660000D03*
X238760000Y-71120000D03*
X236220000Y-71120000D03*
X233680000Y-71120000D03*
X231140000Y-71120000D03*
X228600000Y-71120000D03*
X228600000Y-73660000D03*
X231140000Y-73660000D03*
X233680000Y-73660000D03*
X236220000Y-73660000D03*
X238760000Y-73660000D03*
X177800000Y-71120000D03*
X175260000Y-71120000D03*
X172720000Y-71120000D03*
X170180000Y-71120000D03*
X167640000Y-71120000D03*
X167640000Y-73660000D03*
X170180000Y-73660000D03*
X172720000Y-73660000D03*
X175260000Y-73660000D03*
X177800000Y-73660000D03*
X208280000Y-71120000D03*
X205740000Y-71120000D03*
X203200000Y-71120000D03*
X200660000Y-71120000D03*
X198120000Y-71120000D03*
X198120000Y-73660000D03*
X200660000Y-73660000D03*
X203200000Y-73660000D03*
X205740000Y-73660000D03*
X208280000Y-73660000D03*
X147320000Y-71120000D03*
X144780000Y-71120000D03*
X142240000Y-71120000D03*
X139700000Y-71120000D03*
X137160000Y-71120000D03*
X137160000Y-73660000D03*
X139700000Y-73660000D03*
X142240000Y-73660000D03*
X144780000Y-73660000D03*
X147320000Y-73660000D03*
X162560000Y-71120000D03*
X160020000Y-71120000D03*
X157480000Y-71120000D03*
X154940000Y-71120000D03*
X152400000Y-71120000D03*
X152400000Y-73660000D03*
X154940000Y-73660000D03*
X157480000Y-73660000D03*
X160020000Y-73660000D03*
X162560000Y-73660000D03*
X116840000Y-71120000D03*
X114300000Y-71120000D03*
X111760000Y-71120000D03*
X109220000Y-71120000D03*
X106680000Y-71120000D03*
X106680000Y-73660000D03*
X109220000Y-73660000D03*
X111760000Y-73660000D03*
X114300000Y-73660000D03*
X116840000Y-73660000D03*
X132080000Y-71120000D03*
X129540000Y-71120000D03*
X127000000Y-71120000D03*
X124460000Y-71120000D03*
X121920000Y-71120000D03*
X121920000Y-73660000D03*
X124460000Y-73660000D03*
X127000000Y-73660000D03*
X129540000Y-73660000D03*
X132080000Y-73660000D03*
X101600000Y-71120000D03*
X99060000Y-71120000D03*
X96520000Y-71120000D03*
X93980000Y-71120000D03*
X91440000Y-71120000D03*
X91440000Y-73660000D03*
X93980000Y-73660000D03*
X96520000Y-73660000D03*
X99060000Y-73660000D03*
X101600000Y-73660000D03*
X86360000Y-109220000D03*
X86360000Y-106680000D03*
X86360000Y-104140000D03*
X86360000Y-101600000D03*
X86360000Y-99060000D03*
X86360000Y-91440000D03*
X86360000Y-88900000D03*
X86360000Y-86360000D03*
X86360000Y-83820000D03*
X86360000Y-81280000D03*
X182880000Y-81280000D03*
X182880000Y-83820000D03*
X182880000Y-86360000D03*
X182880000Y-88900000D03*
X182880000Y-91440000D03*
X182880000Y-99060000D03*
X182880000Y-101600000D03*
X182880000Y-104140000D03*
X182880000Y-106680000D03*
X182880000Y-109220000D03*
X215900000Y-109220000D03*
X215900000Y-106680000D03*
X215900000Y-104140000D03*
X215900000Y-101600000D03*
X215900000Y-99060000D03*
X215900000Y-91440000D03*
X215900000Y-88900000D03*
X215900000Y-86360000D03*
X215900000Y-83820000D03*
X215900000Y-81280000D03*
X213360000Y-81280000D03*
X213360000Y-83820000D03*
X213360000Y-86360000D03*
X213360000Y-88900000D03*
X213360000Y-91440000D03*
X213360000Y-99060000D03*
X213360000Y-101600000D03*
X213360000Y-104140000D03*
X213360000Y-106680000D03*
X213360000Y-109220000D03*
X210820000Y-109220000D03*
X210820000Y-106680000D03*
X210820000Y-104140000D03*
X210820000Y-101600000D03*
X210820000Y-99060000D03*
X210820000Y-91440000D03*
X210820000Y-88900000D03*
X210820000Y-86360000D03*
X210820000Y-83820000D03*
X210820000Y-81280000D03*
X208280000Y-81280000D03*
X208280000Y-83820000D03*
X208280000Y-86360000D03*
X208280000Y-88900000D03*
X208280000Y-91440000D03*
X208280000Y-99060000D03*
X208280000Y-101600000D03*
X208280000Y-104140000D03*
X208280000Y-106680000D03*
X208280000Y-109220000D03*
X205740000Y-109220000D03*
X205740000Y-106680000D03*
X205740000Y-104140000D03*
X205740000Y-101600000D03*
X205740000Y-99060000D03*
X205740000Y-91440000D03*
X205740000Y-88900000D03*
X205740000Y-86360000D03*
X205740000Y-83820000D03*
X205740000Y-81280000D03*
X203200000Y-81280000D03*
X203200000Y-83820000D03*
X203200000Y-86360000D03*
X203200000Y-88900000D03*
X203200000Y-91440000D03*
X203200000Y-99060000D03*
X203200000Y-101600000D03*
X203200000Y-104140000D03*
X203200000Y-106680000D03*
X203200000Y-109220000D03*
X200660000Y-109220000D03*
X200660000Y-106680000D03*
X200660000Y-104140000D03*
X200660000Y-101600000D03*
X200660000Y-99060000D03*
X200660000Y-91440000D03*
X200660000Y-88900000D03*
X200660000Y-86360000D03*
X200660000Y-83820000D03*
X200660000Y-81280000D03*
X198120000Y-109220000D03*
X198120000Y-106680000D03*
X198120000Y-104140000D03*
X198120000Y-101600000D03*
X198120000Y-99060000D03*
X198120000Y-91440000D03*
X198120000Y-88900000D03*
X198120000Y-86360000D03*
X198120000Y-83820000D03*
X198120000Y-81280000D03*
X195580000Y-81280000D03*
X195580000Y-83820000D03*
X195580000Y-86360000D03*
X195580000Y-88900000D03*
X195580000Y-91440000D03*
X195580000Y-99060000D03*
X195580000Y-101600000D03*
X195580000Y-104140000D03*
X195580000Y-106680000D03*
X195580000Y-109220000D03*
X193040000Y-109220000D03*
X193040000Y-106680000D03*
X193040000Y-104140000D03*
X193040000Y-101600000D03*
X193040000Y-99060000D03*
X193040000Y-91440000D03*
X193040000Y-88900000D03*
X193040000Y-86360000D03*
X193040000Y-83820000D03*
X193040000Y-81280000D03*
X190500000Y-81280000D03*
X190500000Y-83820000D03*
X190500000Y-86360000D03*
X190500000Y-88900000D03*
X190500000Y-91440000D03*
X190500000Y-99060000D03*
X190500000Y-101600000D03*
X190500000Y-104140000D03*
X190500000Y-106680000D03*
X190500000Y-109220000D03*
X187960000Y-109220000D03*
X187960000Y-106680000D03*
X187960000Y-104140000D03*
X187960000Y-101600000D03*
X187960000Y-99060000D03*
X187960000Y-91440000D03*
X187960000Y-88900000D03*
X187960000Y-86360000D03*
X187960000Y-83820000D03*
X187960000Y-81280000D03*
X134620000Y-81280000D03*
X134620000Y-83820000D03*
X134620000Y-86360000D03*
X134620000Y-88900000D03*
X134620000Y-91440000D03*
X134620000Y-99060000D03*
X134620000Y-101600000D03*
X134620000Y-104140000D03*
X134620000Y-106680000D03*
X134620000Y-109220000D03*
X132080000Y-109220000D03*
X132080000Y-106680000D03*
X132080000Y-104140000D03*
X132080000Y-101600000D03*
X132080000Y-99060000D03*
X132080000Y-91440000D03*
X132080000Y-88900000D03*
X132080000Y-86360000D03*
X132080000Y-83820000D03*
X132080000Y-81280000D03*
X180340000Y-109220000D03*
X180340000Y-106680000D03*
X180340000Y-104140000D03*
X180340000Y-101600000D03*
X180340000Y-99060000D03*
X180340000Y-91440000D03*
X180340000Y-88900000D03*
X180340000Y-86360000D03*
X180340000Y-83820000D03*
X180340000Y-81280000D03*
X177800000Y-81280000D03*
X177800000Y-83820000D03*
X177800000Y-86360000D03*
X177800000Y-88900000D03*
X177800000Y-91440000D03*
X177800000Y-99060000D03*
X177800000Y-101600000D03*
X177800000Y-104140000D03*
X177800000Y-106680000D03*
X177800000Y-109220000D03*
X175260000Y-109220000D03*
X175260000Y-106680000D03*
X175260000Y-104140000D03*
X175260000Y-101600000D03*
X175260000Y-99060000D03*
X175260000Y-91440000D03*
X175260000Y-88900000D03*
X175260000Y-86360000D03*
X175260000Y-83820000D03*
X175260000Y-81280000D03*
X172720000Y-81280000D03*
X172720000Y-83820000D03*
X172720000Y-86360000D03*
X172720000Y-88900000D03*
X172720000Y-91440000D03*
X172720000Y-99060000D03*
X172720000Y-101600000D03*
X172720000Y-104140000D03*
X172720000Y-106680000D03*
X172720000Y-109220000D03*
X170180000Y-109220000D03*
X170180000Y-106680000D03*
X170180000Y-104140000D03*
X170180000Y-101600000D03*
X170180000Y-99060000D03*
X170180000Y-91440000D03*
X170180000Y-88900000D03*
X170180000Y-86360000D03*
X170180000Y-83820000D03*
X170180000Y-81280000D03*
X167640000Y-81280000D03*
X167640000Y-83820000D03*
X167640000Y-86360000D03*
X167640000Y-88900000D03*
X167640000Y-91440000D03*
X167640000Y-99060000D03*
X167640000Y-101600000D03*
X167640000Y-104140000D03*
X167640000Y-106680000D03*
X167640000Y-109220000D03*
X165100000Y-109220000D03*
X165100000Y-106680000D03*
X165100000Y-104140000D03*
X165100000Y-101600000D03*
X165100000Y-99060000D03*
X165100000Y-91440000D03*
X165100000Y-88900000D03*
X165100000Y-86360000D03*
X165100000Y-83820000D03*
X165100000Y-81280000D03*
X162560000Y-81280000D03*
X162560000Y-83820000D03*
X162560000Y-86360000D03*
X162560000Y-88900000D03*
X162560000Y-91440000D03*
X162560000Y-99060000D03*
X162560000Y-101600000D03*
X162560000Y-104140000D03*
X162560000Y-106680000D03*
X162560000Y-109220000D03*
X129540000Y-109220000D03*
X129540000Y-106680000D03*
X129540000Y-104140000D03*
X129540000Y-101600000D03*
X129540000Y-99060000D03*
X129540000Y-91440000D03*
X129540000Y-88900000D03*
X129540000Y-86360000D03*
X129540000Y-83820000D03*
X129540000Y-81280000D03*
X127000000Y-81280000D03*
X127000000Y-83820000D03*
X127000000Y-86360000D03*
X127000000Y-88900000D03*
X127000000Y-91440000D03*
X127000000Y-99060000D03*
X127000000Y-101600000D03*
X127000000Y-104140000D03*
X127000000Y-106680000D03*
X127000000Y-109220000D03*
X124460000Y-109220000D03*
X124460000Y-106680000D03*
X124460000Y-104140000D03*
X124460000Y-101600000D03*
X124460000Y-99060000D03*
X124460000Y-91440000D03*
X124460000Y-88900000D03*
X124460000Y-86360000D03*
X124460000Y-83820000D03*
X124460000Y-81280000D03*
X121920000Y-81280000D03*
X121920000Y-83820000D03*
X121920000Y-86360000D03*
X121920000Y-88900000D03*
X121920000Y-91440000D03*
X121920000Y-99060000D03*
X121920000Y-101600000D03*
X121920000Y-104140000D03*
X121920000Y-106680000D03*
X121920000Y-109220000D03*
X119380000Y-109220000D03*
X119380000Y-106680000D03*
X119380000Y-104140000D03*
X119380000Y-101600000D03*
X119380000Y-99060000D03*
X119380000Y-91440000D03*
X119380000Y-88900000D03*
X119380000Y-86360000D03*
X119380000Y-83820000D03*
X119380000Y-81280000D03*
X116840000Y-81280000D03*
X116840000Y-83820000D03*
X116840000Y-86360000D03*
X116840000Y-88900000D03*
X116840000Y-91440000D03*
X116840000Y-99060000D03*
X116840000Y-101600000D03*
X116840000Y-104140000D03*
X116840000Y-106680000D03*
X116840000Y-109220000D03*
X114300000Y-109220000D03*
X114300000Y-106680000D03*
X114300000Y-104140000D03*
X114300000Y-101600000D03*
X114300000Y-99060000D03*
X114300000Y-91440000D03*
X114300000Y-88900000D03*
X114300000Y-86360000D03*
X114300000Y-83820000D03*
X114300000Y-81280000D03*
X111760000Y-81280000D03*
X111760000Y-83820000D03*
X111760000Y-86360000D03*
X111760000Y-88900000D03*
X111760000Y-91440000D03*
X111760000Y-99060000D03*
X111760000Y-101600000D03*
X111760000Y-104140000D03*
X111760000Y-106680000D03*
X111760000Y-109220000D03*
X109220000Y-109220000D03*
X109220000Y-106680000D03*
X109220000Y-104140000D03*
X109220000Y-101600000D03*
X109220000Y-99060000D03*
X109220000Y-91440000D03*
X109220000Y-88900000D03*
X109220000Y-86360000D03*
X109220000Y-83820000D03*
X109220000Y-81280000D03*
X106680000Y-81280000D03*
X106680000Y-83820000D03*
X106680000Y-86360000D03*
X106680000Y-88900000D03*
X106680000Y-91440000D03*
X106680000Y-99060000D03*
X106680000Y-101600000D03*
X106680000Y-104140000D03*
X106680000Y-106680000D03*
X106680000Y-109220000D03*
X101670000Y-109220000D03*
X101670000Y-106680000D03*
X101670000Y-104140000D03*
X101670000Y-101600000D03*
X101670000Y-99060000D03*
X101670000Y-91440000D03*
X101670000Y-88900000D03*
X101670000Y-86360000D03*
X101670000Y-83820000D03*
X101670000Y-81280000D03*
X104140000Y-81280000D03*
X104140000Y-83820000D03*
X104140000Y-86360000D03*
X104140000Y-88900000D03*
X104140000Y-91440000D03*
X104140000Y-99060000D03*
X104140000Y-101600000D03*
X104140000Y-104140000D03*
X104140000Y-106680000D03*
X104140000Y-109220000D03*
X160020000Y-109220000D03*
X160020000Y-106680000D03*
X160020000Y-104140000D03*
X160020000Y-101600000D03*
X160020000Y-99060000D03*
X160020000Y-91440000D03*
X160020000Y-88900000D03*
X160020000Y-86360000D03*
X160020000Y-83820000D03*
X160020000Y-81280000D03*
X99060000Y-81280000D03*
X99060000Y-83820000D03*
X99060000Y-86360000D03*
X99060000Y-88900000D03*
X99060000Y-91440000D03*
X99060000Y-99060000D03*
X99060000Y-101600000D03*
X99060000Y-104140000D03*
X99060000Y-106680000D03*
X99060000Y-109220000D03*
X157480000Y-109220000D03*
X157480000Y-106680000D03*
X157480000Y-104140000D03*
X157480000Y-101600000D03*
X157480000Y-99060000D03*
X157480000Y-91440000D03*
X157480000Y-88900000D03*
X157480000Y-86360000D03*
X157480000Y-83820000D03*
X157480000Y-81280000D03*
X96520000Y-81280000D03*
X96520000Y-83820000D03*
X96520000Y-86360000D03*
X96520000Y-88900000D03*
X96520000Y-91440000D03*
X96520000Y-99060000D03*
X96520000Y-101600000D03*
X96520000Y-104140000D03*
X96520000Y-106680000D03*
X96520000Y-109220000D03*
X154940000Y-109220000D03*
X154940000Y-106680000D03*
X154940000Y-104140000D03*
X154940000Y-101600000D03*
X154940000Y-99060000D03*
X154940000Y-91440000D03*
X154940000Y-88900000D03*
X154940000Y-86360000D03*
X154940000Y-83820000D03*
X154940000Y-81280000D03*
X93980000Y-81280000D03*
X93980000Y-83820000D03*
X93980000Y-86360000D03*
X93980000Y-88900000D03*
X93980000Y-91440000D03*
X93980000Y-99060000D03*
X93980000Y-101600000D03*
X93980000Y-104140000D03*
X93980000Y-106680000D03*
X93980000Y-109220000D03*
X152400000Y-109220000D03*
X152400000Y-106680000D03*
X152400000Y-104140000D03*
X152400000Y-101600000D03*
X152400000Y-99060000D03*
X152400000Y-91440000D03*
X152400000Y-88900000D03*
X152400000Y-86360000D03*
X152400000Y-83820000D03*
X152400000Y-81280000D03*
X91440000Y-81280000D03*
X91440000Y-83820000D03*
X91440000Y-86360000D03*
X91440000Y-88900000D03*
X91440000Y-91440000D03*
X91440000Y-99060000D03*
X91440000Y-101600000D03*
X91440000Y-104140000D03*
X91440000Y-106680000D03*
X91440000Y-109220000D03*
X149860000Y-109220000D03*
X149860000Y-106680000D03*
X149860000Y-104140000D03*
X149860000Y-101600000D03*
X149860000Y-99060000D03*
X149860000Y-91440000D03*
X149860000Y-88900000D03*
X149860000Y-86360000D03*
X149860000Y-83820000D03*
X149860000Y-81280000D03*
X88900000Y-81280000D03*
X88900000Y-83820000D03*
X88900000Y-86360000D03*
X88900000Y-88900000D03*
X88900000Y-91440000D03*
X88900000Y-99060000D03*
X88900000Y-101600000D03*
X88900000Y-104140000D03*
X88900000Y-106680000D03*
X88900000Y-109220000D03*
X147320000Y-109220000D03*
X147320000Y-106680000D03*
X147320000Y-104140000D03*
X147320000Y-101600000D03*
X147320000Y-99060000D03*
X147320000Y-91440000D03*
X147320000Y-88900000D03*
X147320000Y-86360000D03*
X147320000Y-83820000D03*
X147320000Y-81280000D03*
X236220000Y-81280000D03*
X236220000Y-83820000D03*
X236220000Y-86360000D03*
X236220000Y-88900000D03*
X236220000Y-91440000D03*
X236220000Y-99060000D03*
X236220000Y-101600000D03*
X236220000Y-104140000D03*
X236220000Y-106680000D03*
X236220000Y-109220000D03*
X144780000Y-109220000D03*
X144780000Y-106680000D03*
X144780000Y-104140000D03*
X144780000Y-101600000D03*
X144780000Y-99060000D03*
X144780000Y-91440000D03*
X144780000Y-88900000D03*
X144780000Y-86360000D03*
X144780000Y-83820000D03*
X144780000Y-81280000D03*
X238760000Y-81280000D03*
X238760000Y-83820000D03*
X238760000Y-86360000D03*
X238760000Y-88900000D03*
X238760000Y-91440000D03*
X238760000Y-99060000D03*
X238760000Y-101600000D03*
X238760000Y-104140000D03*
X238760000Y-106680000D03*
X238760000Y-109220000D03*
X142240000Y-109220000D03*
X142240000Y-106680000D03*
X142240000Y-104140000D03*
X142240000Y-101600000D03*
X142240000Y-99060000D03*
X142240000Y-91440000D03*
X142240000Y-88900000D03*
X142240000Y-86360000D03*
X142240000Y-83820000D03*
X142240000Y-81280000D03*
X241300000Y-81280000D03*
X241300000Y-83820000D03*
X241300000Y-86360000D03*
X241300000Y-88900000D03*
X241300000Y-91440000D03*
X241300000Y-99060000D03*
X241300000Y-101600000D03*
X241300000Y-104140000D03*
X241300000Y-106680000D03*
X241300000Y-109220000D03*
X139700000Y-109220000D03*
X139700000Y-106680000D03*
X139700000Y-104140000D03*
X139700000Y-101600000D03*
X139700000Y-99060000D03*
X139700000Y-91440000D03*
X139700000Y-88900000D03*
X139700000Y-86360000D03*
X139700000Y-83820000D03*
X139700000Y-81280000D03*
X243840000Y-81280000D03*
X243840000Y-83820000D03*
X243840000Y-86360000D03*
X243840000Y-88900000D03*
X243840000Y-91440000D03*
X243840000Y-99060000D03*
X243840000Y-101600000D03*
X243840000Y-104140000D03*
X243840000Y-106680000D03*
X243840000Y-109220000D03*
X137160000Y-109220000D03*
X137160000Y-106680000D03*
X137160000Y-104140000D03*
X137160000Y-101600000D03*
X137160000Y-99060000D03*
X137160000Y-91440000D03*
X137160000Y-88900000D03*
X137160000Y-86360000D03*
X137160000Y-83820000D03*
X137160000Y-81280000D03*
X185420000Y-81280000D03*
X185420000Y-83820000D03*
X185420000Y-86360000D03*
X185420000Y-88900000D03*
X185420000Y-91440000D03*
X185420000Y-99060000D03*
X185420000Y-101600000D03*
X185420000Y-104140000D03*
X185420000Y-106680000D03*
X185420000Y-109220000D03*
X218440000Y-109220000D03*
X218440000Y-106680000D03*
X218440000Y-104140000D03*
X218440000Y-101600000D03*
X218440000Y-99060000D03*
X218440000Y-91440000D03*
X218440000Y-88900000D03*
X218440000Y-86360000D03*
X218440000Y-83820000D03*
X218440000Y-81280000D03*
X220980000Y-81280000D03*
X220980000Y-83820000D03*
X220980000Y-86360000D03*
X220980000Y-88900000D03*
X220980000Y-91440000D03*
X220980000Y-99060000D03*
X220980000Y-101600000D03*
X220980000Y-104140000D03*
X220980000Y-106680000D03*
X220980000Y-109220000D03*
X223520000Y-109220000D03*
X223520000Y-106680000D03*
X223520000Y-104140000D03*
X223520000Y-101600000D03*
X223520000Y-99060000D03*
X223520000Y-91440000D03*
X223520000Y-88900000D03*
X223520000Y-86360000D03*
X223520000Y-83820000D03*
X223520000Y-81280000D03*
X226060000Y-81280000D03*
X226060000Y-83820000D03*
X226060000Y-86360000D03*
X226060000Y-88900000D03*
X226060000Y-91440000D03*
X226060000Y-99060000D03*
X226060000Y-101600000D03*
X226060000Y-104140000D03*
X226060000Y-106680000D03*
X226060000Y-109220000D03*
X228600000Y-109220000D03*
X228600000Y-106680000D03*
X228600000Y-104140000D03*
X228600000Y-101600000D03*
X228600000Y-99060000D03*
X228600000Y-91440000D03*
X228600000Y-88900000D03*
X228600000Y-86360000D03*
X228600000Y-83820000D03*
X228600000Y-81280000D03*
X231140000Y-81280000D03*
X231140000Y-83820000D03*
X231140000Y-86360000D03*
X231140000Y-88900000D03*
X231140000Y-91440000D03*
X231140000Y-99060000D03*
X231140000Y-101600000D03*
X231140000Y-104140000D03*
X231140000Y-106680000D03*
X231140000Y-109220000D03*
X233680000Y-109220000D03*
X233680000Y-106680000D03*
X233680000Y-104140000D03*
X233680000Y-101600000D03*
X233680000Y-99060000D03*
X233680000Y-91440000D03*
X233680000Y-88900000D03*
X233680000Y-86360000D03*
X233680000Y-83820000D03*
X233680000Y-81280000D03*
D13*
X84074000Y-96520000D03*
X84074000Y-94615000D03*
X246126000Y-96520000D03*
X246126000Y-94615000D03*
D14*
X152400000Y-71120000D02*
X149860000Y-71120000D01*
X144780000Y-71120000D02*
X147320000Y-71120000D01*
X137160000Y-71120000D02*
X142240000Y-71120000D01*
X142240000Y-71120000D02*
X144780000Y-71120000D01*
X147320000Y-71120000D02*
X149860000Y-71120000D01*
X137160000Y-71120000D02*
X134620000Y-71120000D01*
X129540000Y-71120000D02*
X132080000Y-71120000D01*
X121920000Y-71120000D02*
X127000000Y-71120000D01*
X127000000Y-71120000D02*
X129540000Y-71120000D01*
X132080000Y-71120000D02*
X134620000Y-71120000D01*
X121920000Y-71120000D02*
X119380000Y-71120000D01*
X114300000Y-71120000D02*
X116840000Y-71120000D01*
X106680000Y-71120000D02*
X111760000Y-71120000D01*
X111760000Y-71120000D02*
X114300000Y-71120000D01*
X116840000Y-71120000D02*
X119380000Y-71120000D01*
X106680000Y-71120000D02*
X104140000Y-71120000D01*
X99060000Y-71120000D02*
X101600000Y-71120000D01*
X91440000Y-71120000D02*
X96520000Y-71120000D01*
X96520000Y-71120000D02*
X99060000Y-71120000D01*
X101600000Y-71120000D02*
X104140000Y-71120000D01*
X163830000Y-71120000D02*
X162560000Y-71120000D01*
X162560000Y-71120000D02*
X160020000Y-71120000D01*
X160020000Y-71120000D02*
X157480000Y-71120000D01*
X157480000Y-71120000D02*
X154940000Y-71120000D01*
X154940000Y-71120000D02*
X152400000Y-71120000D01*
X149860000Y-73660000D02*
X152400000Y-73660000D01*
X137160000Y-73660000D02*
X142240000Y-73660000D01*
X142240000Y-73660000D02*
X144780000Y-73660000D01*
X144780000Y-73660000D02*
X147320000Y-73660000D01*
X147320000Y-73660000D02*
X149860000Y-73660000D01*
X134620000Y-73660000D02*
X137160000Y-73660000D01*
X121920000Y-73660000D02*
X127000000Y-73660000D01*
X127000000Y-73660000D02*
X129540000Y-73660000D01*
X129540000Y-73660000D02*
X132080000Y-73660000D01*
X132080000Y-73660000D02*
X134620000Y-73660000D01*
X119380000Y-73660000D02*
X121920000Y-73660000D01*
X106680000Y-73660000D02*
X111760000Y-73660000D01*
X111760000Y-73660000D02*
X114300000Y-73660000D01*
X114300000Y-73660000D02*
X116840000Y-73660000D01*
X116840000Y-73660000D02*
X119380000Y-73660000D01*
X104140000Y-73660000D02*
X106680000Y-73660000D01*
X91440000Y-73660000D02*
X96520000Y-73660000D01*
X96520000Y-73660000D02*
X99060000Y-73660000D01*
X99060000Y-73660000D02*
X101600000Y-73660000D01*
X101600000Y-73660000D02*
X104140000Y-73660000D01*
X163830000Y-73660000D02*
X162560000Y-73660000D01*
X152400000Y-73660000D02*
X154940000Y-73660000D01*
X154940000Y-73660000D02*
X157480000Y-73660000D01*
X157480000Y-73660000D02*
X160020000Y-73660000D01*
X160020000Y-73660000D02*
X162560000Y-73660000D01*
X83566000Y-74422000D02*
X84328000Y-73660000D01*
X83566000Y-94234000D02*
X83566000Y-74422000D01*
X84328000Y-73660000D02*
X91440000Y-73660000D01*
X84074000Y-94742000D02*
X83566000Y-94234000D01*
X236220000Y-71120000D02*
X238760000Y-71120000D01*
X228600000Y-71120000D02*
X233680000Y-71120000D01*
X233680000Y-71120000D02*
X236220000Y-71120000D01*
X228600000Y-71120000D02*
X226060000Y-71120000D01*
X220980000Y-71120000D02*
X223520000Y-71120000D01*
X213360000Y-71120000D02*
X218440000Y-71120000D01*
X218440000Y-71120000D02*
X220980000Y-71120000D01*
X223520000Y-71120000D02*
X226060000Y-71120000D01*
X213360000Y-71120000D02*
X210820000Y-71120000D01*
X205740000Y-71120000D02*
X208280000Y-71120000D01*
X198120000Y-71120000D02*
X203200000Y-71120000D01*
X203200000Y-71120000D02*
X205740000Y-71120000D01*
X208280000Y-71120000D02*
X210820000Y-71120000D01*
X198120000Y-71120000D02*
X195580000Y-71120000D01*
X190500000Y-71120000D02*
X193040000Y-71120000D01*
X182880000Y-71120000D02*
X187960000Y-71120000D01*
X187960000Y-71120000D02*
X190500000Y-71120000D01*
X193040000Y-71120000D02*
X195580000Y-71120000D01*
X182880000Y-71120000D02*
X180340000Y-71120000D01*
X175260000Y-71120000D02*
X177800000Y-71120000D01*
X167640000Y-71120000D02*
X172720000Y-71120000D01*
X172720000Y-71120000D02*
X175260000Y-71120000D01*
X177800000Y-71120000D02*
X180340000Y-71120000D01*
X167640000Y-71120000D02*
X166370000Y-71120000D01*
X245872000Y-71120000D02*
X238760000Y-71120000D01*
X246634000Y-71882000D02*
X245872000Y-71120000D01*
X246634000Y-93472000D02*
X246634000Y-71882000D01*
X246634000Y-94107000D02*
X246126000Y-94615000D01*
X246634000Y-93472000D02*
X246634000Y-94107000D01*
X228600000Y-73660000D02*
X233680000Y-73660000D01*
X233680000Y-73660000D02*
X236220000Y-73660000D01*
X236220000Y-73660000D02*
X238760000Y-73660000D01*
X226060000Y-73660000D02*
X228600000Y-73660000D01*
X213360000Y-73660000D02*
X218440000Y-73660000D01*
X218440000Y-73660000D02*
X220980000Y-73660000D01*
X220980000Y-73660000D02*
X223520000Y-73660000D01*
X223520000Y-73660000D02*
X226060000Y-73660000D01*
X210820000Y-73660000D02*
X213360000Y-73660000D01*
X198120000Y-73660000D02*
X203200000Y-73660000D01*
X203200000Y-73660000D02*
X205740000Y-73660000D01*
X205740000Y-73660000D02*
X208280000Y-73660000D01*
X208280000Y-73660000D02*
X210820000Y-73660000D01*
X195580000Y-73660000D02*
X198120000Y-73660000D01*
X182880000Y-73660000D02*
X187960000Y-73660000D01*
X187960000Y-73660000D02*
X190500000Y-73660000D01*
X190500000Y-73660000D02*
X193040000Y-73660000D01*
X193040000Y-73660000D02*
X195580000Y-73660000D01*
X180340000Y-73660000D02*
X182880000Y-73660000D01*
X167640000Y-73660000D02*
X172720000Y-73660000D01*
X172720000Y-73660000D02*
X175260000Y-73660000D01*
X175260000Y-73660000D02*
X177800000Y-73660000D01*
X177800000Y-73660000D02*
X180340000Y-73660000D01*
X167640000Y-73660000D02*
X166370000Y-73660000D01*
X101600000Y-116840000D02*
X99060000Y-116840000D01*
X93980000Y-116840000D02*
X96520000Y-116840000D01*
X91440000Y-116840000D02*
X93980000Y-116840000D01*
X96520000Y-116840000D02*
X99060000Y-116840000D01*
X116840000Y-116840000D02*
X114300000Y-116840000D01*
X109220000Y-116840000D02*
X111760000Y-116840000D01*
X101600000Y-116840000D02*
X106680000Y-116840000D01*
X106680000Y-116840000D02*
X109220000Y-116840000D01*
X111760000Y-116840000D02*
X114300000Y-116840000D01*
X132080000Y-116840000D02*
X129540000Y-116840000D01*
X124460000Y-116840000D02*
X127000000Y-116840000D01*
X116840000Y-116840000D02*
X121920000Y-116840000D01*
X121920000Y-116840000D02*
X124460000Y-116840000D01*
X127000000Y-116840000D02*
X129540000Y-116840000D01*
X147320000Y-116840000D02*
X144780000Y-116840000D01*
X139700000Y-116840000D02*
X142240000Y-116840000D01*
X132080000Y-116840000D02*
X137160000Y-116840000D01*
X137160000Y-116840000D02*
X139700000Y-116840000D01*
X142240000Y-116840000D02*
X144780000Y-116840000D01*
X162560000Y-116840000D02*
X160020000Y-116840000D01*
X163830000Y-116840000D02*
X162560000Y-116840000D01*
X147320000Y-116840000D02*
X152400000Y-116840000D01*
X152400000Y-116840000D02*
X154940000Y-116840000D01*
X154940000Y-116840000D02*
X157480000Y-116840000D01*
X157480000Y-116840000D02*
X160020000Y-116840000D01*
X99060000Y-119380000D02*
X101600000Y-119380000D01*
X91440000Y-119380000D02*
X93980000Y-119380000D01*
X93980000Y-119380000D02*
X96520000Y-119380000D01*
X96520000Y-119380000D02*
X99060000Y-119380000D01*
X114300000Y-119380000D02*
X116840000Y-119380000D01*
X101600000Y-119380000D02*
X106680000Y-119380000D01*
X106680000Y-119380000D02*
X109220000Y-119380000D01*
X109220000Y-119380000D02*
X111760000Y-119380000D01*
X111760000Y-119380000D02*
X114300000Y-119380000D01*
X129540000Y-119380000D02*
X132080000Y-119380000D01*
X116840000Y-119380000D02*
X121920000Y-119380000D01*
X121920000Y-119380000D02*
X124460000Y-119380000D01*
X124460000Y-119380000D02*
X127000000Y-119380000D01*
X127000000Y-119380000D02*
X129540000Y-119380000D01*
X144780000Y-119380000D02*
X147320000Y-119380000D01*
X132080000Y-119380000D02*
X137160000Y-119380000D01*
X137160000Y-119380000D02*
X139700000Y-119380000D01*
X139700000Y-119380000D02*
X142240000Y-119380000D01*
X142240000Y-119380000D02*
X144780000Y-119380000D01*
X160020000Y-119380000D02*
X162560000Y-119380000D01*
X162560000Y-119380000D02*
X163830000Y-119380000D01*
X147320000Y-119380000D02*
X152400000Y-119380000D01*
X152400000Y-119380000D02*
X154940000Y-119380000D01*
X154940000Y-119380000D02*
X157480000Y-119380000D01*
X157480000Y-119380000D02*
X160020000Y-119380000D01*
X84328000Y-119380000D02*
X91440000Y-119380000D01*
X83566000Y-118618000D02*
X84328000Y-119380000D01*
X83566000Y-97028000D02*
X83566000Y-118618000D01*
X84074000Y-96520000D02*
X83566000Y-97028000D01*
X238760000Y-116840000D02*
X236220000Y-116840000D01*
X231140000Y-116840000D02*
X233680000Y-116840000D01*
X223520000Y-116840000D02*
X228600000Y-116840000D01*
X228600000Y-116840000D02*
X231140000Y-116840000D01*
X233680000Y-116840000D02*
X236220000Y-116840000D01*
X223520000Y-116840000D02*
X220980000Y-116840000D01*
X215900000Y-116840000D02*
X218440000Y-116840000D01*
X208280000Y-116840000D02*
X213360000Y-116840000D01*
X213360000Y-116840000D02*
X215900000Y-116840000D01*
X218440000Y-116840000D02*
X220980000Y-116840000D01*
X208280000Y-116840000D02*
X205740000Y-116840000D01*
X200660000Y-116840000D02*
X203200000Y-116840000D01*
X193040000Y-116840000D02*
X198120000Y-116840000D01*
X198120000Y-116840000D02*
X200660000Y-116840000D01*
X203200000Y-116840000D02*
X205740000Y-116840000D01*
X193040000Y-116840000D02*
X190500000Y-116840000D01*
X185420000Y-116840000D02*
X187960000Y-116840000D01*
X177800000Y-116840000D02*
X182880000Y-116840000D01*
X182880000Y-116840000D02*
X185420000Y-116840000D01*
X187960000Y-116840000D02*
X190500000Y-116840000D01*
X182880000Y-116840000D02*
X180340000Y-116840000D01*
X175260000Y-116840000D02*
X177800000Y-116840000D01*
X167640000Y-116840000D02*
X172720000Y-116840000D01*
X172720000Y-116840000D02*
X175260000Y-116840000D01*
X177800000Y-116840000D02*
X180340000Y-116840000D01*
X166370000Y-116840000D02*
X167640000Y-116840000D01*
X245872000Y-116840000D02*
X238760000Y-116840000D01*
X246634000Y-116078000D02*
X245872000Y-116840000D01*
X246634000Y-97028000D02*
X246634000Y-116078000D01*
X246126000Y-96520000D02*
X246634000Y-97028000D01*
X236220000Y-119380000D02*
X238760000Y-119380000D01*
X223520000Y-119380000D02*
X228600000Y-119380000D01*
X228600000Y-119380000D02*
X231140000Y-119380000D01*
X231140000Y-119380000D02*
X233680000Y-119380000D01*
X233680000Y-119380000D02*
X236220000Y-119380000D01*
X220980000Y-119380000D02*
X223520000Y-119380000D01*
X208280000Y-119380000D02*
X213360000Y-119380000D01*
X213360000Y-119380000D02*
X215900000Y-119380000D01*
X215900000Y-119380000D02*
X218440000Y-119380000D01*
X218440000Y-119380000D02*
X220980000Y-119380000D01*
X205740000Y-119380000D02*
X208280000Y-119380000D01*
X193040000Y-119380000D02*
X198120000Y-119380000D01*
X198120000Y-119380000D02*
X200660000Y-119380000D01*
X200660000Y-119380000D02*
X203200000Y-119380000D01*
X203200000Y-119380000D02*
X205740000Y-119380000D01*
X190500000Y-119380000D02*
X193040000Y-119380000D01*
X177800000Y-119380000D02*
X182880000Y-119380000D01*
X182880000Y-119380000D02*
X185420000Y-119380000D01*
X185420000Y-119380000D02*
X187960000Y-119380000D01*
X187960000Y-119380000D02*
X190500000Y-119380000D01*
X180340000Y-119380000D02*
X182880000Y-119380000D01*
X167640000Y-119380000D02*
X172720000Y-119380000D01*
X172720000Y-119380000D02*
X175260000Y-119380000D01*
X175260000Y-119380000D02*
X177800000Y-119380000D01*
X177800000Y-119380000D02*
X180340000Y-119380000D01*
X167640000Y-119380000D02*
X166370000Y-119380000D01*
X86360000Y-99060000D02*
X86360000Y-101600000D01*
X86360000Y-101600000D02*
X86360000Y-104140000D01*
X86360000Y-106680000D02*
X86360000Y-104140000D01*
X86360000Y-106680000D02*
X86360000Y-109220000D01*
X86360000Y-81280000D02*
X86360000Y-83820000D01*
X86360000Y-83820000D02*
X86360000Y-86360000D01*
X86360000Y-86360000D02*
X86360000Y-88900000D01*
X86360000Y-88900000D02*
X86360000Y-91440000D01*
X182880000Y-83820000D02*
X182880000Y-86360000D01*
X182880000Y-86360000D02*
X182880000Y-88900000D01*
X182880000Y-81280000D02*
X182880000Y-83820000D01*
X182880000Y-88900000D02*
X182880000Y-91440000D01*
X182880000Y-106680000D02*
X182880000Y-109220000D01*
X182880000Y-99060000D02*
X182880000Y-101600000D01*
X182880000Y-101600000D02*
X182880000Y-104140000D01*
X182880000Y-106680000D02*
X182880000Y-104140000D01*
X215900000Y-106680000D02*
X215900000Y-109220000D01*
X215900000Y-99060000D02*
X215900000Y-101600000D01*
X215900000Y-101600000D02*
X215900000Y-104140000D01*
X215900000Y-106680000D02*
X215900000Y-104140000D01*
X215900000Y-83820000D02*
X215900000Y-86360000D01*
X215900000Y-86360000D02*
X215900000Y-88900000D01*
X215900000Y-81280000D02*
X215900000Y-83820000D01*
X215900000Y-88900000D02*
X215900000Y-91440000D01*
X213360000Y-83820000D02*
X213360000Y-86360000D01*
X213360000Y-86360000D02*
X213360000Y-88900000D01*
X213360000Y-81280000D02*
X213360000Y-83820000D01*
X213360000Y-88900000D02*
X213360000Y-91440000D01*
X213360000Y-106680000D02*
X213360000Y-109220000D01*
X213360000Y-99060000D02*
X213360000Y-101600000D01*
X213360000Y-101600000D02*
X213360000Y-104140000D01*
X213360000Y-106680000D02*
X213360000Y-104140000D01*
X210820000Y-106680000D02*
X210820000Y-109220000D01*
X210820000Y-99060000D02*
X210820000Y-101600000D01*
X210820000Y-101600000D02*
X210820000Y-104140000D01*
X210820000Y-106680000D02*
X210820000Y-104140000D01*
X210820000Y-83820000D02*
X210820000Y-86360000D01*
X210820000Y-86360000D02*
X210820000Y-88900000D01*
X210820000Y-81280000D02*
X210820000Y-83820000D01*
X210820000Y-88900000D02*
X210820000Y-91440000D01*
X208280000Y-83820000D02*
X208280000Y-86360000D01*
X208280000Y-86360000D02*
X208280000Y-88900000D01*
X208280000Y-81280000D02*
X208280000Y-83820000D01*
X208280000Y-88900000D02*
X208280000Y-91440000D01*
X208280000Y-106680000D02*
X208280000Y-109220000D01*
X208280000Y-99060000D02*
X208280000Y-101600000D01*
X208280000Y-101600000D02*
X208280000Y-104140000D01*
X208280000Y-106680000D02*
X208280000Y-104140000D01*
X205740000Y-106680000D02*
X205740000Y-109220000D01*
X205740000Y-99060000D02*
X205740000Y-101600000D01*
X205740000Y-101600000D02*
X205740000Y-104140000D01*
X205740000Y-106680000D02*
X205740000Y-104140000D01*
X205740000Y-83820000D02*
X205740000Y-86360000D01*
X205740000Y-86360000D02*
X205740000Y-88900000D01*
X205740000Y-81280000D02*
X205740000Y-83820000D01*
X205740000Y-88900000D02*
X205740000Y-91440000D01*
X203200000Y-83820000D02*
X203200000Y-86360000D01*
X203200000Y-86360000D02*
X203200000Y-88900000D01*
X203200000Y-81280000D02*
X203200000Y-83820000D01*
X203200000Y-88900000D02*
X203200000Y-91440000D01*
X203200000Y-106680000D02*
X203200000Y-109220000D01*
X203200000Y-99060000D02*
X203200000Y-101600000D01*
X203200000Y-101600000D02*
X203200000Y-104140000D01*
X203200000Y-106680000D02*
X203200000Y-104140000D01*
X200660000Y-106680000D02*
X200660000Y-109220000D01*
X200660000Y-99060000D02*
X200660000Y-101600000D01*
X200660000Y-101600000D02*
X200660000Y-104140000D01*
X200660000Y-106680000D02*
X200660000Y-104140000D01*
X200660000Y-83820000D02*
X200660000Y-86360000D01*
X200660000Y-86360000D02*
X200660000Y-88900000D01*
X200660000Y-81280000D02*
X200660000Y-83820000D01*
X200660000Y-88900000D02*
X200660000Y-91440000D01*
X198120000Y-106680000D02*
X198120000Y-109220000D01*
X198120000Y-99060000D02*
X198120000Y-101600000D01*
X198120000Y-101600000D02*
X198120000Y-104140000D01*
X198120000Y-106680000D02*
X198120000Y-104140000D01*
X198120000Y-83820000D02*
X198120000Y-86360000D01*
X198120000Y-86360000D02*
X198120000Y-88900000D01*
X198120000Y-81280000D02*
X198120000Y-83820000D01*
X198120000Y-88900000D02*
X198120000Y-91440000D01*
X195580000Y-83820000D02*
X195580000Y-86360000D01*
X195580000Y-86360000D02*
X195580000Y-88900000D01*
X195580000Y-81280000D02*
X195580000Y-83820000D01*
X195580000Y-88900000D02*
X195580000Y-91440000D01*
X195580000Y-106680000D02*
X195580000Y-109220000D01*
X195580000Y-99060000D02*
X195580000Y-101600000D01*
X195580000Y-101600000D02*
X195580000Y-104140000D01*
X195580000Y-106680000D02*
X195580000Y-104140000D01*
X193040000Y-106680000D02*
X193040000Y-109220000D01*
X193040000Y-99060000D02*
X193040000Y-101600000D01*
X193040000Y-101600000D02*
X193040000Y-104140000D01*
X193040000Y-106680000D02*
X193040000Y-104140000D01*
X193040000Y-83820000D02*
X193040000Y-86360000D01*
X193040000Y-86360000D02*
X193040000Y-88900000D01*
X193040000Y-81280000D02*
X193040000Y-83820000D01*
X193040000Y-88900000D02*
X193040000Y-91440000D01*
X190500000Y-83820000D02*
X190500000Y-86360000D01*
X190500000Y-86360000D02*
X190500000Y-88900000D01*
X190500000Y-81280000D02*
X190500000Y-83820000D01*
X190500000Y-88900000D02*
X190500000Y-91440000D01*
X190500000Y-106680000D02*
X190500000Y-109220000D01*
X190500000Y-99060000D02*
X190500000Y-101600000D01*
X190500000Y-101600000D02*
X190500000Y-104140000D01*
X190500000Y-106680000D02*
X190500000Y-104140000D01*
X187960000Y-106680000D02*
X187960000Y-109220000D01*
X187960000Y-99060000D02*
X187960000Y-101600000D01*
X187960000Y-101600000D02*
X187960000Y-104140000D01*
X187960000Y-106680000D02*
X187960000Y-104140000D01*
X187960000Y-83820000D02*
X187960000Y-86360000D01*
X187960000Y-86360000D02*
X187960000Y-88900000D01*
X187960000Y-81280000D02*
X187960000Y-83820000D01*
X187960000Y-88900000D02*
X187960000Y-91440000D01*
X134620000Y-81280000D02*
X134620000Y-83820000D01*
X134620000Y-86360000D02*
X134620000Y-88900000D01*
X134620000Y-88900000D02*
X134620000Y-91440000D01*
X134620000Y-83820000D02*
X134620000Y-86360000D01*
X134620000Y-106680000D02*
X134620000Y-109220000D01*
X134620000Y-106680000D02*
X134620000Y-104140000D01*
X134620000Y-99060000D02*
X134620000Y-101600000D01*
X134620000Y-101600000D02*
X134620000Y-104140000D01*
X132080000Y-101600000D02*
X132080000Y-104140000D01*
X132080000Y-106680000D02*
X132080000Y-104140000D01*
X132080000Y-106680000D02*
X132080000Y-109220000D01*
X132080000Y-99060000D02*
X132080000Y-101600000D01*
X132080000Y-86360000D02*
X132080000Y-88900000D01*
X132080000Y-88900000D02*
X132080000Y-91440000D01*
X132080000Y-81280000D02*
X132080000Y-83820000D01*
X132080000Y-83820000D02*
X132080000Y-86360000D01*
X180340000Y-106680000D02*
X180340000Y-109220000D01*
X180340000Y-99060000D02*
X180340000Y-101600000D01*
X180340000Y-101600000D02*
X180340000Y-104140000D01*
X180340000Y-106680000D02*
X180340000Y-104140000D01*
X180340000Y-83820000D02*
X180340000Y-86360000D01*
X180340000Y-86360000D02*
X180340000Y-88900000D01*
X180340000Y-81280000D02*
X180340000Y-83820000D01*
X180340000Y-88900000D02*
X180340000Y-91440000D01*
X177800000Y-83820000D02*
X177800000Y-86360000D01*
X177800000Y-86360000D02*
X177800000Y-88900000D01*
X177800000Y-81280000D02*
X177800000Y-83820000D01*
X177800000Y-88900000D02*
X177800000Y-91440000D01*
X177800000Y-106680000D02*
X177800000Y-109220000D01*
X177800000Y-99060000D02*
X177800000Y-101600000D01*
X177800000Y-101600000D02*
X177800000Y-104140000D01*
X177800000Y-106680000D02*
X177800000Y-104140000D01*
X175260000Y-106680000D02*
X175260000Y-109220000D01*
X175260000Y-99060000D02*
X175260000Y-101600000D01*
X175260000Y-101600000D02*
X175260000Y-104140000D01*
X175260000Y-106680000D02*
X175260000Y-104140000D01*
X175260000Y-83820000D02*
X175260000Y-86360000D01*
X175260000Y-86360000D02*
X175260000Y-88900000D01*
X175260000Y-81280000D02*
X175260000Y-83820000D01*
X175260000Y-88900000D02*
X175260000Y-91440000D01*
X172720000Y-83820000D02*
X172720000Y-86360000D01*
X172720000Y-86360000D02*
X172720000Y-88900000D01*
X172720000Y-81280000D02*
X172720000Y-83820000D01*
X172720000Y-88900000D02*
X172720000Y-91440000D01*
X172720000Y-106680000D02*
X172720000Y-109220000D01*
X172720000Y-99060000D02*
X172720000Y-101600000D01*
X172720000Y-101600000D02*
X172720000Y-104140000D01*
X172720000Y-106680000D02*
X172720000Y-104140000D01*
X170180000Y-106680000D02*
X170180000Y-109220000D01*
X170180000Y-99060000D02*
X170180000Y-101600000D01*
X170180000Y-101600000D02*
X170180000Y-104140000D01*
X170180000Y-106680000D02*
X170180000Y-104140000D01*
X170180000Y-83820000D02*
X170180000Y-86360000D01*
X170180000Y-86360000D02*
X170180000Y-88900000D01*
X170180000Y-81280000D02*
X170180000Y-83820000D01*
X170180000Y-88900000D02*
X170180000Y-91440000D01*
X167640000Y-83820000D02*
X167640000Y-86360000D01*
X167640000Y-86360000D02*
X167640000Y-88900000D01*
X167640000Y-81280000D02*
X167640000Y-83820000D01*
X167640000Y-88900000D02*
X167640000Y-91440000D01*
X167640000Y-106680000D02*
X167640000Y-109220000D01*
X167640000Y-99060000D02*
X167640000Y-101600000D01*
X167640000Y-101600000D02*
X167640000Y-104140000D01*
X167640000Y-106680000D02*
X167640000Y-104140000D01*
X165100000Y-106680000D02*
X165100000Y-109220000D01*
X165100000Y-99060000D02*
X165100000Y-101600000D01*
X165100000Y-101600000D02*
X165100000Y-104140000D01*
X165100000Y-106680000D02*
X165100000Y-104140000D01*
X165100000Y-83820000D02*
X165100000Y-86360000D01*
X165100000Y-86360000D02*
X165100000Y-88900000D01*
X165100000Y-81280000D02*
X165100000Y-83820000D01*
X165100000Y-88900000D02*
X165100000Y-91440000D01*
X162560000Y-83820000D02*
X162560000Y-86360000D01*
X162560000Y-86360000D02*
X162560000Y-88900000D01*
X162560000Y-81280000D02*
X162560000Y-83820000D01*
X162560000Y-88900000D02*
X162560000Y-91440000D01*
X162560000Y-106680000D02*
X162560000Y-109220000D01*
X162560000Y-99060000D02*
X162560000Y-101600000D01*
X162560000Y-101600000D02*
X162560000Y-104140000D01*
X162560000Y-106680000D02*
X162560000Y-104140000D01*
X129540000Y-106680000D02*
X129540000Y-109220000D01*
X129540000Y-101600000D02*
X129540000Y-104140000D01*
X129540000Y-106680000D02*
X129540000Y-104140000D01*
X129540000Y-99060000D02*
X129540000Y-101600000D01*
X129540000Y-83820000D02*
X129540000Y-86360000D01*
X129540000Y-86360000D02*
X129540000Y-88900000D01*
X129540000Y-81280000D02*
X129540000Y-83820000D01*
X129540000Y-88900000D02*
X129540000Y-91440000D01*
X127000000Y-88900000D02*
X127000000Y-91440000D01*
X127000000Y-86360000D02*
X127000000Y-88900000D01*
X127000000Y-83820000D02*
X127000000Y-86360000D01*
X127000000Y-81280000D02*
X127000000Y-83820000D01*
X127000000Y-101600000D02*
X127000000Y-104140000D01*
X127000000Y-99060000D02*
X127000000Y-101600000D01*
X127000000Y-106680000D02*
X127000000Y-109220000D01*
X127000000Y-106680000D02*
X127000000Y-104140000D01*
X124460000Y-99060000D02*
X124460000Y-101600000D01*
X124460000Y-106680000D02*
X124460000Y-109220000D01*
X124460000Y-106680000D02*
X124460000Y-104140000D01*
X124460000Y-101600000D02*
X124460000Y-104140000D01*
X124460000Y-83820000D02*
X124460000Y-86360000D01*
X124460000Y-86360000D02*
X124460000Y-88900000D01*
X124460000Y-88900000D02*
X124460000Y-91440000D01*
X124460000Y-81280000D02*
X124460000Y-83820000D01*
X121920000Y-83820000D02*
X121920000Y-86360000D01*
X121920000Y-81280000D02*
X121920000Y-83820000D01*
X121920000Y-86360000D02*
X121920000Y-88900000D01*
X121920000Y-88900000D02*
X121920000Y-91440000D01*
X121920000Y-106680000D02*
X121920000Y-109220000D01*
X121920000Y-99060000D02*
X121920000Y-101600000D01*
X121920000Y-106680000D02*
X121920000Y-104140000D01*
X121920000Y-101600000D02*
X121920000Y-104140000D01*
X119380000Y-99060000D02*
X119380000Y-101600000D01*
X119380000Y-106680000D02*
X119380000Y-104140000D01*
X119380000Y-106680000D02*
X119380000Y-109220000D01*
X119380000Y-101600000D02*
X119380000Y-104140000D01*
X119380000Y-81280000D02*
X119380000Y-83820000D01*
X119380000Y-83820000D02*
X119380000Y-86360000D01*
X119380000Y-88900000D02*
X119380000Y-91440000D01*
X119380000Y-86360000D02*
X119380000Y-88900000D01*
X116840000Y-86360000D02*
X116840000Y-88900000D01*
X116840000Y-81280000D02*
X116840000Y-83820000D01*
X116840000Y-83820000D02*
X116840000Y-86360000D01*
X116840000Y-88900000D02*
X116840000Y-91440000D01*
X116840000Y-99060000D02*
X116840000Y-101600000D01*
X116840000Y-106680000D02*
X116840000Y-104140000D01*
X116840000Y-101600000D02*
X116840000Y-104140000D01*
X116840000Y-106680000D02*
X116840000Y-109220000D01*
X114300000Y-99060000D02*
X114300000Y-101600000D01*
X114300000Y-101600000D02*
X114300000Y-104140000D01*
X114300000Y-106680000D02*
X114300000Y-104140000D01*
X114300000Y-106680000D02*
X114300000Y-109220000D01*
X114300000Y-88900000D02*
X114300000Y-91440000D01*
X114300000Y-81280000D02*
X114300000Y-83820000D01*
X114300000Y-86360000D02*
X114300000Y-88900000D01*
X114300000Y-83820000D02*
X114300000Y-86360000D01*
X111760000Y-83820000D02*
X111760000Y-86360000D01*
X111760000Y-86360000D02*
X111760000Y-88900000D01*
X111760000Y-81280000D02*
X111760000Y-83820000D01*
X111760000Y-88900000D02*
X111760000Y-91440000D01*
X111760000Y-106680000D02*
X111760000Y-104140000D01*
X111760000Y-101600000D02*
X111760000Y-104140000D01*
X111760000Y-106680000D02*
X111760000Y-109220000D01*
X111760000Y-99060000D02*
X111760000Y-101600000D01*
X109220000Y-106680000D02*
X109220000Y-104140000D01*
X109220000Y-101600000D02*
X109220000Y-104140000D01*
X109220000Y-106680000D02*
X109220000Y-109220000D01*
X109220000Y-99060000D02*
X109220000Y-101600000D01*
X109220000Y-83820000D02*
X109220000Y-86360000D01*
X109220000Y-86360000D02*
X109220000Y-88900000D01*
X109220000Y-81280000D02*
X109220000Y-83820000D01*
X109220000Y-88900000D02*
X109220000Y-91440000D01*
X106680000Y-83820000D02*
X106680000Y-86360000D01*
X106680000Y-86360000D02*
X106680000Y-88900000D01*
X106680000Y-81280000D02*
X106680000Y-83820000D01*
X106680000Y-88900000D02*
X106680000Y-91440000D01*
X106680000Y-106680000D02*
X106680000Y-104140000D01*
X106680000Y-101600000D02*
X106680000Y-104140000D01*
X106680000Y-106680000D02*
X106680000Y-109220000D01*
X106680000Y-99060000D02*
X106680000Y-101600000D01*
X101600000Y-106680000D02*
X101600000Y-104140000D01*
X101600000Y-101600000D02*
X101600000Y-104140000D01*
X101600000Y-106680000D02*
X101600000Y-109220000D01*
X101600000Y-99060000D02*
X101600000Y-101600000D01*
X101600000Y-83820000D02*
X101600000Y-86360000D01*
X101600000Y-86360000D02*
X101600000Y-88900000D01*
X101600000Y-81280000D02*
X101600000Y-83820000D01*
X101600000Y-88900000D02*
X101600000Y-91440000D01*
X104140000Y-83820000D02*
X104140000Y-86360000D01*
X104140000Y-86360000D02*
X104140000Y-88900000D01*
X104140000Y-81280000D02*
X104140000Y-83820000D01*
X104140000Y-88900000D02*
X104140000Y-91440000D01*
X104140000Y-106680000D02*
X104140000Y-104140000D01*
X104140000Y-101600000D02*
X104140000Y-104140000D01*
X104140000Y-106680000D02*
X104140000Y-109220000D01*
X104140000Y-99060000D02*
X104140000Y-101600000D01*
X160020000Y-106680000D02*
X160020000Y-109220000D01*
X160020000Y-106680000D02*
X160020000Y-104140000D01*
X160020000Y-99060000D02*
X160020000Y-101600000D01*
X160020000Y-101600000D02*
X160020000Y-104140000D01*
X160020000Y-81280000D02*
X160020000Y-83820000D01*
X160020000Y-86360000D02*
X160020000Y-88900000D01*
X160020000Y-88900000D02*
X160020000Y-91440000D01*
X160020000Y-83820000D02*
X160020000Y-86360000D01*
X99060000Y-83820000D02*
X99060000Y-86360000D01*
X99060000Y-86360000D02*
X99060000Y-88900000D01*
X99060000Y-81280000D02*
X99060000Y-83820000D01*
X99060000Y-88900000D02*
X99060000Y-91440000D01*
X99060000Y-106680000D02*
X99060000Y-104140000D01*
X99060000Y-101600000D02*
X99060000Y-104140000D01*
X99060000Y-106680000D02*
X99060000Y-109220000D01*
X99060000Y-99060000D02*
X99060000Y-101600000D01*
X157480000Y-101600000D02*
X157480000Y-104140000D01*
X157480000Y-106680000D02*
X157480000Y-104140000D01*
X157480000Y-106680000D02*
X157480000Y-109220000D01*
X157480000Y-99060000D02*
X157480000Y-101600000D01*
X157480000Y-86360000D02*
X157480000Y-88900000D01*
X157480000Y-88900000D02*
X157480000Y-91440000D01*
X157480000Y-81280000D02*
X157480000Y-83820000D01*
X157480000Y-83820000D02*
X157480000Y-86360000D01*
X96520000Y-83820000D02*
X96520000Y-86360000D01*
X96520000Y-86360000D02*
X96520000Y-88900000D01*
X96520000Y-81280000D02*
X96520000Y-83820000D01*
X96520000Y-88900000D02*
X96520000Y-91440000D01*
X96520000Y-106680000D02*
X96520000Y-104140000D01*
X96520000Y-101600000D02*
X96520000Y-104140000D01*
X96520000Y-106680000D02*
X96520000Y-109220000D01*
X96520000Y-99060000D02*
X96520000Y-101600000D01*
X154940000Y-106680000D02*
X154940000Y-109220000D01*
X154940000Y-101600000D02*
X154940000Y-104140000D01*
X154940000Y-106680000D02*
X154940000Y-104140000D01*
X154940000Y-99060000D02*
X154940000Y-101600000D01*
X154940000Y-83820000D02*
X154940000Y-86360000D01*
X154940000Y-86360000D02*
X154940000Y-88900000D01*
X154940000Y-81280000D02*
X154940000Y-83820000D01*
X154940000Y-88900000D02*
X154940000Y-91440000D01*
X93980000Y-83820000D02*
X93980000Y-86360000D01*
X93980000Y-86360000D02*
X93980000Y-88900000D01*
X93980000Y-81280000D02*
X93980000Y-83820000D01*
X93980000Y-88900000D02*
X93980000Y-91440000D01*
X93980000Y-106680000D02*
X93980000Y-104140000D01*
X93980000Y-101600000D02*
X93980000Y-104140000D01*
X93980000Y-106680000D02*
X93980000Y-109220000D01*
X93980000Y-99060000D02*
X93980000Y-101600000D01*
X152400000Y-101600000D02*
X152400000Y-104140000D01*
X152400000Y-99060000D02*
X152400000Y-101600000D01*
X152400000Y-106680000D02*
X152400000Y-109220000D01*
X152400000Y-106680000D02*
X152400000Y-104140000D01*
X152400000Y-88900000D02*
X152400000Y-91440000D01*
X152400000Y-86360000D02*
X152400000Y-88900000D01*
X152400000Y-83820000D02*
X152400000Y-86360000D01*
X152400000Y-81280000D02*
X152400000Y-83820000D01*
X91440000Y-83820000D02*
X91440000Y-86360000D01*
X91440000Y-86360000D02*
X91440000Y-88900000D01*
X91440000Y-81280000D02*
X91440000Y-83820000D01*
X91440000Y-88900000D02*
X91440000Y-91440000D01*
X91440000Y-106680000D02*
X91440000Y-104140000D01*
X91440000Y-101600000D02*
X91440000Y-104140000D01*
X91440000Y-106680000D02*
X91440000Y-109220000D01*
X91440000Y-99060000D02*
X91440000Y-101600000D01*
X149860000Y-99060000D02*
X149860000Y-101600000D01*
X149860000Y-106680000D02*
X149860000Y-109220000D01*
X149860000Y-106680000D02*
X149860000Y-104140000D01*
X149860000Y-101600000D02*
X149860000Y-104140000D01*
X149860000Y-83820000D02*
X149860000Y-86360000D01*
X149860000Y-86360000D02*
X149860000Y-88900000D01*
X149860000Y-88900000D02*
X149860000Y-91440000D01*
X149860000Y-81280000D02*
X149860000Y-83820000D01*
X88900000Y-83820000D02*
X88900000Y-86360000D01*
X88900000Y-86360000D02*
X88900000Y-88900000D01*
X88900000Y-81280000D02*
X88900000Y-83820000D01*
X88900000Y-88900000D02*
X88900000Y-91440000D01*
X88900000Y-106680000D02*
X88900000Y-104140000D01*
X88900000Y-101600000D02*
X88900000Y-104140000D01*
X88900000Y-106680000D02*
X88900000Y-109220000D01*
X88900000Y-99060000D02*
X88900000Y-101600000D01*
X147320000Y-106680000D02*
X147320000Y-109220000D01*
X147320000Y-99060000D02*
X147320000Y-101600000D01*
X147320000Y-106680000D02*
X147320000Y-104140000D01*
X147320000Y-101600000D02*
X147320000Y-104140000D01*
X147320000Y-83820000D02*
X147320000Y-86360000D01*
X147320000Y-81280000D02*
X147320000Y-83820000D01*
X147320000Y-86360000D02*
X147320000Y-88900000D01*
X147320000Y-88900000D02*
X147320000Y-91440000D01*
X236220000Y-83820000D02*
X236220000Y-86360000D01*
X236220000Y-86360000D02*
X236220000Y-88900000D01*
X236220000Y-81280000D02*
X236220000Y-83820000D01*
X236220000Y-88900000D02*
X236220000Y-91440000D01*
X236220000Y-106680000D02*
X236220000Y-109220000D01*
X236220000Y-99060000D02*
X236220000Y-101600000D01*
X236220000Y-101600000D02*
X236220000Y-104140000D01*
X236220000Y-106680000D02*
X236220000Y-104140000D01*
X144780000Y-99060000D02*
X144780000Y-101600000D01*
X144780000Y-106680000D02*
X144780000Y-104140000D01*
X144780000Y-106680000D02*
X144780000Y-109220000D01*
X144780000Y-101600000D02*
X144780000Y-104140000D01*
X144780000Y-81280000D02*
X144780000Y-83820000D01*
X144780000Y-83820000D02*
X144780000Y-86360000D01*
X144780000Y-88900000D02*
X144780000Y-91440000D01*
X144780000Y-86360000D02*
X144780000Y-88900000D01*
X238760000Y-83820000D02*
X238760000Y-86360000D01*
X238760000Y-86360000D02*
X238760000Y-88900000D01*
X238760000Y-81280000D02*
X238760000Y-83820000D01*
X238760000Y-88900000D02*
X238760000Y-91440000D01*
X238760000Y-106680000D02*
X238760000Y-109220000D01*
X238760000Y-99060000D02*
X238760000Y-101600000D01*
X238760000Y-101600000D02*
X238760000Y-104140000D01*
X238760000Y-106680000D02*
X238760000Y-104140000D01*
X142240000Y-99060000D02*
X142240000Y-101600000D01*
X142240000Y-106680000D02*
X142240000Y-104140000D01*
X142240000Y-101600000D02*
X142240000Y-104140000D01*
X142240000Y-106680000D02*
X142240000Y-109220000D01*
X142240000Y-86360000D02*
X142240000Y-88900000D01*
X142240000Y-81280000D02*
X142240000Y-83820000D01*
X142240000Y-83820000D02*
X142240000Y-86360000D01*
X142240000Y-88900000D02*
X142240000Y-91440000D01*
X241300000Y-83820000D02*
X241300000Y-86360000D01*
X241300000Y-86360000D02*
X241300000Y-88900000D01*
X241300000Y-81280000D02*
X241300000Y-83820000D01*
X241300000Y-88900000D02*
X241300000Y-91440000D01*
X241300000Y-106680000D02*
X241300000Y-109220000D01*
X241300000Y-99060000D02*
X241300000Y-101600000D01*
X241300000Y-101600000D02*
X241300000Y-104140000D01*
X241300000Y-106680000D02*
X241300000Y-104140000D01*
X139700000Y-99060000D02*
X139700000Y-101600000D01*
X139700000Y-101600000D02*
X139700000Y-104140000D01*
X139700000Y-106680000D02*
X139700000Y-104140000D01*
X139700000Y-106680000D02*
X139700000Y-109220000D01*
X139700000Y-88900000D02*
X139700000Y-91440000D01*
X139700000Y-81280000D02*
X139700000Y-83820000D01*
X139700000Y-86360000D02*
X139700000Y-88900000D01*
X139700000Y-83820000D02*
X139700000Y-86360000D01*
X243840000Y-83820000D02*
X243840000Y-86360000D01*
X243840000Y-86360000D02*
X243840000Y-88900000D01*
X243840000Y-81280000D02*
X243840000Y-83820000D01*
X243840000Y-88900000D02*
X243840000Y-91440000D01*
X243840000Y-106680000D02*
X243840000Y-109220000D01*
X243840000Y-99060000D02*
X243840000Y-101600000D01*
X243840000Y-101600000D02*
X243840000Y-104140000D01*
X243840000Y-106680000D02*
X243840000Y-104140000D01*
X137160000Y-106680000D02*
X137160000Y-104140000D01*
X137160000Y-101600000D02*
X137160000Y-104140000D01*
X137160000Y-106680000D02*
X137160000Y-109220000D01*
X137160000Y-99060000D02*
X137160000Y-101600000D01*
X137160000Y-83820000D02*
X137160000Y-86360000D01*
X137160000Y-86360000D02*
X137160000Y-88900000D01*
X137160000Y-81280000D02*
X137160000Y-83820000D01*
X137160000Y-88900000D02*
X137160000Y-91440000D01*
X185420000Y-83820000D02*
X185420000Y-86360000D01*
X185420000Y-86360000D02*
X185420000Y-88900000D01*
X185420000Y-81280000D02*
X185420000Y-83820000D01*
X185420000Y-88900000D02*
X185420000Y-91440000D01*
X185420000Y-106680000D02*
X185420000Y-109220000D01*
X185420000Y-99060000D02*
X185420000Y-101600000D01*
X185420000Y-101600000D02*
X185420000Y-104140000D01*
X185420000Y-106680000D02*
X185420000Y-104140000D01*
X218440000Y-106680000D02*
X218440000Y-109220000D01*
X218440000Y-99060000D02*
X218440000Y-101600000D01*
X218440000Y-101600000D02*
X218440000Y-104140000D01*
X218440000Y-106680000D02*
X218440000Y-104140000D01*
X218440000Y-83820000D02*
X218440000Y-86360000D01*
X218440000Y-86360000D02*
X218440000Y-88900000D01*
X218440000Y-81280000D02*
X218440000Y-83820000D01*
X218440000Y-88900000D02*
X218440000Y-91440000D01*
X220980000Y-83820000D02*
X220980000Y-86360000D01*
X220980000Y-86360000D02*
X220980000Y-88900000D01*
X220980000Y-81280000D02*
X220980000Y-83820000D01*
X220980000Y-88900000D02*
X220980000Y-91440000D01*
X220980000Y-106680000D02*
X220980000Y-109220000D01*
X220980000Y-99060000D02*
X220980000Y-101600000D01*
X220980000Y-101600000D02*
X220980000Y-104140000D01*
X220980000Y-106680000D02*
X220980000Y-104140000D01*
X223520000Y-106680000D02*
X223520000Y-109220000D01*
X223520000Y-99060000D02*
X223520000Y-101600000D01*
X223520000Y-101600000D02*
X223520000Y-104140000D01*
X223520000Y-106680000D02*
X223520000Y-104140000D01*
X223520000Y-83820000D02*
X223520000Y-86360000D01*
X223520000Y-86360000D02*
X223520000Y-88900000D01*
X223520000Y-81280000D02*
X223520000Y-83820000D01*
X223520000Y-88900000D02*
X223520000Y-91440000D01*
X226060000Y-83820000D02*
X226060000Y-86360000D01*
X226060000Y-86360000D02*
X226060000Y-88900000D01*
X226060000Y-81280000D02*
X226060000Y-83820000D01*
X226060000Y-88900000D02*
X226060000Y-91440000D01*
X226060000Y-106680000D02*
X226060000Y-109220000D01*
X226060000Y-99060000D02*
X226060000Y-101600000D01*
X226060000Y-101600000D02*
X226060000Y-104140000D01*
X226060000Y-106680000D02*
X226060000Y-104140000D01*
X228600000Y-106680000D02*
X228600000Y-109220000D01*
X228600000Y-99060000D02*
X228600000Y-101600000D01*
X228600000Y-101600000D02*
X228600000Y-104140000D01*
X228600000Y-106680000D02*
X228600000Y-104140000D01*
X228600000Y-83820000D02*
X228600000Y-86360000D01*
X228600000Y-86360000D02*
X228600000Y-88900000D01*
X228600000Y-81280000D02*
X228600000Y-83820000D01*
X228600000Y-88900000D02*
X228600000Y-91440000D01*
X231140000Y-83820000D02*
X231140000Y-86360000D01*
X231140000Y-86360000D02*
X231140000Y-88900000D01*
X231140000Y-81280000D02*
X231140000Y-83820000D01*
X231140000Y-88900000D02*
X231140000Y-91440000D01*
X231140000Y-106680000D02*
X231140000Y-109220000D01*
X231140000Y-99060000D02*
X231140000Y-101600000D01*
X231140000Y-101600000D02*
X231140000Y-104140000D01*
X231140000Y-106680000D02*
X231140000Y-104140000D01*
X233680000Y-106680000D02*
X233680000Y-109220000D01*
X233680000Y-99060000D02*
X233680000Y-101600000D01*
X233680000Y-101600000D02*
X233680000Y-104140000D01*
X233680000Y-106680000D02*
X233680000Y-104140000D01*
X233680000Y-83820000D02*
X233680000Y-86360000D01*
X233680000Y-86360000D02*
X233680000Y-88900000D01*
X233680000Y-81280000D02*
X233680000Y-83820000D01*
X233680000Y-88900000D02*
X233680000Y-91440000D01*
M02*
