M48
INCH,TZ
T1C0.0394
%
G90
G05
T1
X59000Y-32000
X59000Y-33000
X59000Y-34000
X59000Y-35000
X59000Y-36000
X59000Y-39000
X59000Y-40000
X59000Y-41000
X59000Y-42000
X59000Y-43000
X95000Y-32000
X95000Y-33000
X95000Y-34000
X95000Y-35000
X95000Y-36000
X95000Y-39000
X95000Y-40000
X95000Y-41000
X95000Y-42000
X95000Y-43000
X62000Y-32000
X62000Y-33000
X62000Y-34000
X62000Y-35000
X62000Y-36000
X62000Y-39000
X62000Y-40000
X62000Y-41000
X62000Y-42000
X62000Y-43000
X44000Y-32000
X44000Y-33000
X44000Y-34000
X44000Y-35000
X44000Y-36000
X44000Y-39000
X44000Y-40000
X44000Y-41000
X44000Y-42000
X44000Y-43000
X51000Y-32000
X51000Y-33000
X51000Y-34000
X51000Y-35000
X51000Y-36000
X51000Y-39000
X51000Y-40000
X51000Y-41000
X51000Y-42000
X51000Y-43000
X74000Y-32000
X74000Y-33000
X74000Y-34000
X74000Y-35000
X74000Y-36000
X74000Y-39000
X74000Y-40000
X74000Y-41000
X74000Y-42000
X74000Y-43000
X66000Y-46000
X66000Y-47000
X67000Y-46000
X67000Y-47000
X68000Y-46000
X68000Y-47000
X69000Y-46000
X69000Y-47000
X70000Y-46000
X70000Y-47000
X54000Y-46000
X54000Y-47000
X55000Y-46000
X55000Y-47000
X56000Y-46000
X56000Y-47000
X57000Y-46000
X57000Y-47000
X58000Y-46000
X58000Y-47000
X64000Y-32000
X64000Y-33000
X64000Y-34000
X64000Y-35000
X64000Y-36000
X64000Y-39000
X64000Y-40000
X64000Y-41000
X64000Y-42000
X64000Y-43000
X96000Y-32000
X96000Y-33000
X96000Y-34000
X96000Y-35000
X96000Y-36000
X96000Y-39000
X96000Y-40000
X96000Y-41000
X96000Y-42000
X96000Y-43000
X87000Y-32000
X87000Y-33000
X87000Y-34000
X87000Y-35000
X87000Y-36000
X87000Y-39000
X87000Y-40000
X87000Y-41000
X87000Y-42000
X87000Y-43000
X94000Y-32000
X94000Y-33000
X94000Y-34000
X94000Y-35000
X94000Y-36000
X94000Y-39000
X94000Y-40000
X94000Y-41000
X94000Y-42000
X94000Y-43000
X56000Y-32000
X56000Y-33000
X56000Y-34000
X56000Y-35000
X56000Y-36000
X56000Y-39000
X56000Y-40000
X56000Y-41000
X56000Y-42000
X56000Y-43000
X39000Y-32000
X39000Y-33000
X39000Y-34000
X39000Y-35000
X39000Y-36000
X39000Y-39000
X39000Y-40000
X39000Y-41000
X39000Y-42000
X39000Y-43000
X45000Y-32000
X45000Y-33000
X45000Y-34000
X45000Y-35000
X45000Y-36000
X45000Y-39000
X45000Y-40000
X45000Y-41000
X45000Y-42000
X45000Y-43000
X68000Y-32000
X68000Y-33000
X68000Y-34000
X68000Y-35000
X68000Y-36000
X68000Y-39000
X68000Y-40000
X68000Y-41000
X68000Y-42000
X68000Y-43000
X52000Y-32000
X52000Y-33000
X52000Y-34000
X52000Y-35000
X52000Y-36000
X52000Y-39000
X52000Y-40000
X52000Y-41000
X52000Y-42000
X52000Y-43000
X34000Y-32000
X34000Y-33000
X34000Y-34000
X34000Y-35000
X34000Y-36000
X34000Y-39000
X34000Y-40000
X34000Y-41000
X34000Y-42000
X34000Y-43000
X42000Y-46000
X42000Y-47000
X43000Y-46000
X43000Y-47000
X44000Y-46000
X44000Y-47000
X45000Y-46000
X45000Y-47000
X46000Y-46000
X46000Y-47000
X72000Y-32000
X72000Y-33000
X72000Y-34000
X72000Y-35000
X72000Y-36000
X72000Y-39000
X72000Y-40000
X72000Y-41000
X72000Y-42000
X72000Y-43000
X65000Y-32000
X65000Y-33000
X65000Y-34000
X65000Y-35000
X65000Y-36000
X65000Y-39000
X65000Y-40000
X65000Y-41000
X65000Y-42000
X65000Y-43000
X72000Y-28000
X72000Y-29000
X73000Y-28000
X73000Y-29000
X74000Y-28000
X74000Y-29000
X75000Y-28000
X75000Y-29000
X76000Y-28000
X76000Y-29000
X90000Y-32000
X90000Y-33000
X90000Y-34000
X90000Y-35000
X90000Y-36000
X90000Y-39000
X90000Y-40000
X90000Y-41000
X90000Y-42000
X90000Y-43000
X57000Y-32000
X57000Y-33000
X57000Y-34000
X57000Y-35000
X57000Y-36000
X57000Y-39000
X57000Y-40000
X57000Y-41000
X57000Y-42000
X57000Y-43000
X35000Y-32000
X35000Y-33000
X35000Y-34000
X35000Y-35000
X35000Y-36000
X35000Y-39000
X35000Y-40000
X35000Y-41000
X35000Y-42000
X35000Y-43000
X63000Y-32000
X63000Y-33000
X63000Y-34000
X63000Y-35000
X63000Y-36000
X63000Y-39000
X63000Y-40000
X63000Y-41000
X63000Y-42000
X63000Y-43000
X46000Y-32000
X46000Y-33000
X46000Y-34000
X46000Y-35000
X46000Y-36000
X46000Y-39000
X46000Y-40000
X46000Y-41000
X46000Y-42000
X46000Y-43000
X66000Y-32000
X66000Y-33000
X66000Y-34000
X66000Y-35000
X66000Y-36000
X66000Y-39000
X66000Y-40000
X66000Y-41000
X66000Y-42000
X66000Y-43000
X53000Y-32000
X53000Y-33000
X53000Y-34000
X53000Y-35000
X53000Y-36000
X53000Y-39000
X53000Y-40000
X53000Y-41000
X53000Y-42000
X53000Y-43000
X77000Y-32000
X77000Y-33000
X77000Y-34000
X77000Y-35000
X77000Y-36000
X77000Y-39000
X77000Y-40000
X77000Y-41000
X77000Y-42000
X77000Y-43000
X36000Y-28000
X36000Y-29000
X37000Y-28000
X37000Y-29000
X38000Y-28000
X38000Y-29000
X39000Y-28000
X39000Y-29000
X40000Y-28000
X40000Y-29000
X84000Y-32000
X84000Y-33000
X84000Y-34000
X84000Y-35000
X84000Y-36000
X84000Y-39000
X84000Y-40000
X84000Y-41000
X84000Y-42000
X84000Y-43000
X81000Y-32000
X81000Y-33000
X81000Y-34000
X81000Y-35000
X81000Y-36000
X81000Y-39000
X81000Y-40000
X81000Y-41000
X81000Y-42000
X81000Y-43000
X75000Y-32000
X75000Y-33000
X75000Y-34000
X75000Y-35000
X75000Y-36000
X75000Y-39000
X75000Y-40000
X75000Y-41000
X75000Y-42000
X75000Y-43000
X61000Y-32000
X61000Y-33000
X61000Y-34000
X61000Y-35000
X61000Y-36000
X61000Y-39000
X61000Y-40000
X61000Y-41000
X61000Y-42000
X61000Y-43000
X37000Y-32000
X37000Y-33000
X37000Y-34000
X37000Y-35000
X37000Y-36000
X37000Y-39000
X37000Y-40000
X37000Y-41000
X37000Y-42000
X37000Y-43000
X41000Y-32000
X41000Y-33000
X41000Y-34000
X41000Y-35000
X41000Y-36000
X41000Y-39000
X41000Y-40000
X41000Y-41000
X41000Y-42000
X41000Y-43000
X47000Y-32000
X47000Y-33000
X47000Y-34000
X47000Y-35000
X47000Y-36000
X47000Y-39000
X47000Y-40000
X47000Y-41000
X47000Y-42000
X47000Y-43000
X67000Y-32000
X67000Y-33000
X67000Y-34000
X67000Y-35000
X67000Y-36000
X67000Y-39000
X67000Y-40000
X67000Y-41000
X67000Y-42000
X67000Y-43000
X76000Y-32000
X76000Y-33000
X76000Y-34000
X76000Y-35000
X76000Y-36000
X76000Y-39000
X76000Y-40000
X76000Y-41000
X76000Y-42000
X76000Y-43000
X78000Y-32000
X78000Y-33000
X78000Y-34000
X78000Y-35000
X78000Y-36000
X78000Y-39000
X78000Y-40000
X78000Y-41000
X78000Y-42000
X78000Y-43000
X48000Y-46000
X48000Y-47000
X49000Y-46000
X49000Y-47000
X50000Y-46000
X50000Y-47000
X51000Y-46000
X51000Y-47000
X52000Y-46000
X52000Y-47000
X90000Y-28000
X90000Y-29000
X91000Y-28000
X91000Y-29000
X92000Y-28000
X92000Y-29000
X93000Y-28000
X93000Y-29000
X94000Y-28000
X94000Y-29000
X79000Y-32000
X79000Y-33000
X79000Y-34000
X79000Y-35000
X79000Y-36000
X79000Y-39000
X79000Y-40000
X79000Y-41000
X79000Y-42000
X79000Y-43000
X90000Y-46000
X90000Y-47000
X91000Y-46000
X91000Y-47000
X92000Y-46000
X92000Y-47000
X93000Y-46000
X93000Y-47000
X94000Y-46000
X94000Y-47000
X73000Y-32000
X73000Y-33000
X73000Y-34000
X73000Y-35000
X73000Y-36000
X73000Y-39000
X73000Y-40000
X73000Y-41000
X73000Y-42000
X73000Y-43000
X88000Y-32000
X88000Y-33000
X88000Y-34000
X88000Y-35000
X88000Y-36000
X88000Y-39000
X88000Y-40000
X88000Y-41000
X88000Y-42000
X88000Y-43000
X36000Y-32000
X36000Y-33000
X36000Y-34000
X36000Y-35000
X36000Y-36000
X36000Y-39000
X36000Y-40000
X36000Y-41000
X36000Y-42000
X36000Y-43000
X58000Y-32000
X58000Y-33000
X58000Y-34000
X58000Y-35000
X58000Y-36000
X58000Y-39000
X58000Y-40000
X58000Y-41000
X58000Y-42000
X58000Y-43000
X40028Y-32000
X40028Y-33000
X40028Y-34000
X40028Y-35000
X40028Y-36000
X40028Y-39000
X40028Y-40000
X40028Y-41000
X40028Y-42000
X40028Y-43000
X50000Y-32000
X50000Y-33000
X50000Y-34000
X50000Y-35000
X50000Y-36000
X50000Y-39000
X50000Y-40000
X50000Y-41000
X50000Y-42000
X50000Y-43000
X69000Y-32000
X69000Y-33000
X69000Y-34000
X69000Y-35000
X69000Y-36000
X69000Y-39000
X69000Y-40000
X69000Y-41000
X69000Y-42000
X69000Y-43000
X42000Y-28000
X42000Y-29000
X43000Y-28000
X43000Y-29000
X44000Y-28000
X44000Y-29000
X45000Y-28000
X45000Y-29000
X46000Y-28000
X46000Y-29000
X80000Y-32000
X80000Y-33000
X80000Y-34000
X80000Y-35000
X80000Y-36000
X80000Y-39000
X80000Y-40000
X80000Y-41000
X80000Y-42000
X80000Y-43000
X78000Y-28000
X78000Y-29000
X79000Y-28000
X79000Y-29000
X80000Y-28000
X80000Y-29000
X81000Y-28000
X81000Y-29000
X82000Y-28000
X82000Y-29000
X84000Y-28000
X84000Y-29000
X85000Y-28000
X85000Y-29000
X86000Y-28000
X86000Y-29000
X87000Y-28000
X87000Y-29000
X88000Y-28000
X88000Y-29000
X60000Y-28000
X60000Y-29000
X61000Y-28000
X61000Y-29000
X62000Y-28000
X62000Y-29000
X63000Y-28000
X63000Y-29000
X64000Y-28000
X64000Y-29000
X82000Y-32000
X82000Y-33000
X82000Y-34000
X82000Y-35000
X82000Y-36000
X82000Y-39000
X82000Y-40000
X82000Y-41000
X82000Y-42000
X82000Y-43000
X89000Y-32000
X89000Y-33000
X89000Y-34000
X89000Y-35000
X89000Y-36000
X89000Y-39000
X89000Y-40000
X89000Y-41000
X89000Y-42000
X89000Y-43000
X86000Y-32000
X86000Y-33000
X86000Y-34000
X86000Y-35000
X86000Y-36000
X86000Y-39000
X86000Y-40000
X86000Y-41000
X86000Y-42000
X86000Y-43000
X55000Y-32000
X55000Y-33000
X55000Y-34000
X55000Y-35000
X55000Y-36000
X55000Y-39000
X55000Y-40000
X55000Y-41000
X55000Y-42000
X55000Y-43000
X60000Y-32000
X60000Y-33000
X60000Y-34000
X60000Y-35000
X60000Y-36000
X60000Y-39000
X60000Y-40000
X60000Y-41000
X60000Y-42000
X60000Y-43000
X42000Y-32000
X42000Y-33000
X42000Y-34000
X42000Y-35000
X42000Y-36000
X42000Y-39000
X42000Y-40000
X42000Y-41000
X42000Y-42000
X42000Y-43000
X48000Y-32000
X48000Y-33000
X48000Y-34000
X48000Y-35000
X48000Y-36000
X48000Y-39000
X48000Y-40000
X48000Y-41000
X48000Y-42000
X48000Y-43000
X70000Y-32000
X70000Y-33000
X70000Y-34000
X70000Y-35000
X70000Y-36000
X70000Y-39000
X70000Y-40000
X70000Y-41000
X70000Y-42000
X70000Y-43000
X84000Y-46000
X84000Y-47000
X85000Y-46000
X85000Y-47000
X86000Y-46000
X86000Y-47000
X87000Y-46000
X87000Y-47000
X88000Y-46000
X88000Y-47000
X54000Y-28000
X54000Y-29000
X55000Y-28000
X55000Y-29000
X56000Y-28000
X56000Y-29000
X57000Y-28000
X57000Y-29000
X58000Y-28000
X58000Y-29000
X48000Y-28000
X48000Y-29000
X49000Y-28000
X49000Y-29000
X50000Y-28000
X50000Y-29000
X51000Y-28000
X51000Y-29000
X52000Y-28000
X52000Y-29000
X72000Y-46000
X72000Y-47000
X73000Y-46000
X73000Y-47000
X74000Y-46000
X74000Y-47000
X75000Y-46000
X75000Y-47000
X76000Y-46000
X76000Y-47000
X60000Y-46000
X60000Y-47000
X61000Y-46000
X61000Y-47000
X62000Y-46000
X62000Y-47000
X63000Y-46000
X63000Y-47000
X64000Y-46000
X64000Y-47000
X66000Y-28000
X66000Y-29000
X67000Y-28000
X67000Y-29000
X68000Y-28000
X68000Y-29000
X69000Y-28000
X69000Y-29000
X70000Y-28000
X70000Y-29000
X92000Y-32000
X92000Y-33000
X92000Y-34000
X92000Y-35000
X92000Y-36000
X92000Y-39000
X92000Y-40000
X92000Y-41000
X92000Y-42000
X92000Y-43000
X93000Y-32000
X93000Y-33000
X93000Y-34000
X93000Y-35000
X93000Y-36000
X93000Y-39000
X93000Y-40000
X93000Y-41000
X93000Y-42000
X93000Y-43000
X38000Y-32000
X38000Y-33000
X38000Y-34000
X38000Y-35000
X38000Y-36000
X38000Y-39000
X38000Y-40000
X38000Y-41000
X38000Y-42000
X38000Y-43000
X43000Y-32000
X43000Y-33000
X43000Y-34000
X43000Y-35000
X43000Y-36000
X43000Y-39000
X43000Y-40000
X43000Y-41000
X43000Y-42000
X43000Y-43000
X49000Y-32000
X49000Y-33000
X49000Y-34000
X49000Y-35000
X49000Y-36000
X49000Y-39000
X49000Y-40000
X49000Y-41000
X49000Y-42000
X49000Y-43000
X71000Y-32000
X71000Y-33000
X71000Y-34000
X71000Y-35000
X71000Y-36000
X71000Y-39000
X71000Y-40000
X71000Y-41000
X71000Y-42000
X71000Y-43000
X78000Y-46000
X78000Y-47000
X79000Y-46000
X79000Y-47000
X80000Y-46000
X80000Y-47000
X81000Y-46000
X81000Y-47000
X82000Y-46000
X82000Y-47000
X83000Y-32000
X83000Y-33000
X83000Y-34000
X83000Y-35000
X83000Y-36000
X83000Y-39000
X83000Y-40000
X83000Y-41000
X83000Y-42000
X83000Y-43000
X36000Y-46000
X36000Y-47000
X37000Y-46000
X37000Y-47000
X38000Y-46000
X38000Y-47000
X39000Y-46000
X39000Y-47000
X40000Y-46000
X40000Y-47000
X85000Y-32000
X85000Y-33000
X85000Y-34000
X85000Y-35000
X85000Y-36000
X85000Y-39000
X85000Y-40000
X85000Y-41000
X85000Y-42000
X85000Y-43000
X91000Y-32000
X91000Y-33000
X91000Y-34000
X91000Y-35000
X91000Y-36000
X91000Y-39000
X91000Y-40000
X91000Y-41000
X91000Y-42000
X91000Y-43000
X54000Y-32000
X54000Y-33000
X54000Y-34000
X54000Y-35000
X54000Y-36000
X54000Y-39000
X54000Y-40000
X54000Y-41000
X54000Y-42000
X54000Y-43000
T0
M30
